ply
format ascii 1.0
element vertex 1196
property float x
property float y
property float z
property uchar red
property uchar green
property uchar blue
element face 2152
property list uchar int vertex_indices
end_header
0.000000 80.364677 -1.135709 210 80 80
0.000000 81.068413 -2.288472 210 80 80
0.000000 82.110092 -3.719148 210 80 80
0.000000 83.143372 -5.539469 210 80 80
0.000000 84.881020 -7.539352 210 80 80
0.000000 87.868019 -10.201914 210 80 80
0.000000 91.076256 -12.349340 210 80 80
0.000000 92.742577 -13.000615 210 80 80
0.000000 94.173363 -13.249756 210 80 80
0.000000 95.460838 -13.425117 210 80 80
0.000000 96.719444 -13.480913 210 80 80
0.000000 97.873489 -13.441925 210 80 80
0.000000 98.986824 -13.310607 210 80 80
0.000000 99.978447 -13.150515 210 80 80
0.000000 100.814148 -13.006936 210 80 80
0.000000 101.709991 -12.784811 210 80 80
0.000000 102.750404 -12.443039 210 80 80
0.000000 104.095505 -11.939366 210 80 80
0.000000 105.610054 -11.338172 210 80 80
0.000000 107.218216 -10.588408 210 80 80
0.000000 109.016319 -9.737001 210 80 80
0.000000 110.872787 -8.953779 210 80 80
0.000000 112.774460 -8.269444 210 80 80
0.000000 114.696228 -7.949317 210 80 80
0.000000 116.760841 -8.125022 210 80 80
0.000000 119.095261 -8.732435 210 80 80
0.000000 121.394318 -9.633937 210 80 80
0.000000 123.654907 -10.502644 210 80 80
0.000000 126.072853 -11.075828 210 80 80
0.000000 128.534576 -11.495680 210 80 80
0.000000 130.992554 -11.732106 210 80 80
0.000000 133.393234 -11.565275 210 80 80
0.000000 135.687195 -11.185283 210 80 80
0.000000 137.898819 -10.854166 210 80 80
0.000000 139.935883 -10.491961 210 80 80
0.000000 141.746277 -10.125030 210 80 80
0.000000 143.321655 -9.746220 210 80 80
0.000000 144.730194 -9.344425 210 80 80
0.620019 80.289497 2.458517 210 80 80
0.597218 80.226578 -0.709258 210 80 80
0.820808 80.880943 -2.645810 210 80 80
1.295824 81.817093 -4.018921 210 80 80
1.751706 82.843674 -5.661188 210 80 80
1.709948 84.917648 -8.199782 210 80 80
1.430741 88.356377 -10.955541 210 80 80
1.609226 91.054535 -12.487205 210 80 80
1.417166 92.808647 -13.113408 210 80 80
1.374816 94.191437 -13.366877 210 80 80
1.190777 95.575348 -13.475464 210 80 80
1.095688 96.809196 -13.500984 210 80 80
1.024037 97.901138 -13.457637 210 80 80
0.979821 98.914986 -13.361977 210 80 80
1.080330 99.888275 -13.186611 210 80 80
1.288585 100.788834 -13.004244 210 80 80
1.627654 101.707703 -12.777883 210 80 80
2.129126 102.767998 -12.446573 210 80 80
2.930430 104.186531 -11.897370 210 80 80
2.223283 105.713943 -11.304887 210 80 80
2.148421 107.237724 -10.631957 210 80 80
2.225616 108.920486 -9.775887 210 80 80
2.195326 110.716187 -9.021184 210 80 80
2.246349 112.624939 -8.592933 210 80 80
2.317684 114.604324 -8.572552 210 80 80
2.288452 116.644760 -8.852902 210 80 80
2.267335 118.878410 -9.416540 210 80 80
2.315963 121.218872 -10.158046 210 80 80
2.463121 123.538094 -10.866098 210 80 80
2.624673 125.949608 -11.425855 210 80 80
2.725071 128.446091 -11.866931 210 80 80
2.765841 131.010086 -12.146025 210 80 80
2.696283 133.494171 -11.957030 210 80 80
2.574464 135.894760 -11.616555 210 80 80
2.417040 138.137299 -11.224083 210 80 80
2.272329 140.168442 -10.794390 210 80 80
2.134801 141.939423 -10.362199 210 80 80
2.026484 143.482010 -9.926168 210 80 80
1.940881 144.880493 -9.499236 210 80 80
1.284090 79.321800 -1.970190 210 80 80
1.858268 80.624786 -3.632125 210 80 80
2.398390 81.532433 -5.209463 210 80 80
2.995775 82.720947 -6.515768 210 80 80
3.107748 84.941948 -8.667949 210 80 80
2.989326 88.306091 -11.289133 210 80 80
2.982359 91.112511 -12.805770 210 80 80
2.830278 92.823425 -13.374724 210 80 80
2.700676 94.320251 -13.586025 210 80 80
2.492388 95.721222 -13.670028 210 80 80
2.275334 96.943359 -13.645806 210 80 80
2.095383 97.933327 -13.550975 210 80 80
1.982555 98.777740 -13.448711 210 80 80
2.162840 99.583748 -13.309268 210 80 80
2.573465 100.398895 -13.143041 210 80 80
3.208453 101.251045 -12.933341 210 80 80
4.139167 102.201035 -12.617031 210 80 80
5.444375 103.328712 -12.138841 210 80 80
7.158130 104.550072 -11.494300 210 80 80
5.132870 105.422348 -11.352903 210 80 80
3.817046 106.038055 -11.171010 210 80 80
4.193979 107.155945 -10.627194 210 80 80
4.439708 108.742172 -9.947139 210 80 80
4.410638 110.559570 -9.350587 210 80 80
4.493944 112.371246 -9.061324 210 80 80
4.523270 114.258698 -9.013691 210 80 80
4.597910 116.330025 -9.390762 210 80 80
4.631378 118.547523 -9.929395 210 80 80
4.706454 120.916939 -10.510049 210 80 80
4.954313 123.271965 -11.040346 210 80 80
5.292756 125.654106 -11.545836 210 80 80
5.634932 128.205582 -12.032452 210 80 80
5.754948 131.016541 -12.475937 210 80 80
5.475906 133.742233 -12.563910 210 80 80
5.075712 136.295547 -12.257024 210 80 80
4.724302 138.589676 -11.771005 210 80 80
4.439051 140.601456 -11.241138 210 80 80
4.164608 142.287628 -10.685237 210 80 80
3.988530 143.771698 -10.205812 210 80 80
3.840831 145.137344 -9.710545 210 80 80
20.485401 86.174187 1.062906 210 80 80
20.214355 85.276794 -1.616839 210 80 80
19.367439 84.616653 -3.795018 210 80 80
18.012335 83.808884 -5.580703 210 80 80
16.288836 82.791176 -6.936919 210 80 80
14.259395 81.698921 -7.833216 210 80 80
12.023476 80.755684 -8.308535 210 80 80
9.774617 80.195381 -8.449574 210 80 80
7.648278 79.823898 -8.073518 210 80 80
5.616602 79.573425 -7.255302 210 80 80
3.776038 79.409653 -6.075341 210 80 80
2.316525 79.280617 -4.295034 210 80 80
20.249863 88.327248 -0.731569 210 80 80
20.333473 87.115700 -0.750327 210 80 80
19.931511 86.697823 -2.314466 210 80 80
19.150846 86.153847 -4.187170 210 80 80
17.882191 85.432304 -5.873086 210 80 80
16.300159 84.534760 -7.188111 210 80 80
14.518543 83.411385 -8.008172 210 80 80
12.334298 82.198097 -8.483659 210 80 80
10.010465 81.455986 -8.741451 210 80 80
7.934847 80.955666 -8.273560 210 80 80
6.015071 80.688705 -7.580686 210 80 80
4.288104 80.557526 -6.615709 210 80 80
2.844156 80.499863 -5.359568 210 80 80
3.619741 81.523109 -6.385170 210 80 80
4.238545 82.874580 -7.556888 210 80 80
4.508596 85.121605 -9.270230 210 80 80
4.531653 88.537025 -11.671456 210 80 80
4.423687 91.298012 -13.104192 210 80 80
4.239195 93.018265 -13.621851 210 80 80
4.036595 94.532341 -13.808459 210 80 80
3.802837 95.960709 -13.836288 210 80 80
3.516076 97.198936 -13.750330 210 80 80
3.152837 98.106331 -13.622839 210 80 80
2.786244 98.659767 -13.518815 210 80 80
3.242082 99.112381 -13.467953 210 80 80
3.907341 99.806396 -13.349127 210 80 80
4.810236 100.583023 -13.147584 210 80 80
5.980188 101.405060 -12.860012 210 80 80
7.394559 102.297684 -12.377507 210 80 80
9.038793 103.288345 -11.644877 210 80 80
10.897099 104.360832 -10.574317 210 80 80
9.285847 106.167061 -10.437528 210 80 80
6.308464 106.852776 -10.689248 210 80 80
6.724424 108.572334 -9.962707 210 80 80
6.789327 110.300751 -9.457129 210 80 80
6.728852 112.044250 -9.089324 210 80 80
6.789829 113.926765 -9.054478 210 80 80
6.857248 115.890671 -9.306757 210 80 80
6.980743 118.148293 -9.687853 210 80 80
7.146767 120.563591 -10.173403 210 80 80
7.472059 122.933266 -10.651122 210 80 80
7.983043 125.234512 -11.142444 210 80 80
8.640504 127.708961 -11.650021 210 80 80
9.549089 130.911453 -12.221272 210 80 80
8.298203 134.294739 -12.824627 210 80 80
7.501889 136.917404 -12.651786 210 80 80
6.937785 139.176498 -12.165708 210 80 80
6.529619 141.098450 -11.586721 210 80 80
6.160686 142.712524 -10.967586 210 80 80
5.891148 144.141907 -10.380959 210 80 80
5.709322 145.433701 -9.787041 210 80 80
20.046766 89.991692 -0.741394 210 80 80
19.484266 89.742668 -2.864298 210 80 80
19.738186 88.119598 -2.660696 210 80 80
18.926601 87.661873 -4.388992 210 80 80
17.816952 87.056366 -5.988342 210 80 80
16.448622 86.305092 -7.286525 210 80 80
14.814520 85.292587 -8.249019 210 80 80
12.730558 84.035614 -8.896069 210 80 80
10.341856 83.014290 -9.131121 210 80 80
8.323352 82.349503 -8.753927 210 80 80
6.530742 81.915085 -8.146797 210 80 80
4.968741 81.639809 -7.361204 210 80 80
5.567937 83.251442 -8.472990 210 80 80
5.878387 85.841232 -10.224839 210 80 80
5.958523 89.303093 -12.251328 210 80 80
5.880245 91.644753 -13.275696 210 80 80
5.667559 93.310509 -13.715903 210 80 80
5.402285 94.853638 -13.883495 210 80 80
5.077151 96.319038 -13.894096 210 80 80
4.673255 97.559090 -13.786766 210 80 80
4.097112 98.492096 -13.619298 210 80 80
5.022812 99.052017 -13.527491 210 80 80
6.083100 99.686249 -13.332026 210 80 80
7.314900 100.378494 -13.007066 210 80 80
8.743972 101.130859 -12.476194 210 80 80
10.342079 101.952843 -11.715007 210 80 80
11.989446 102.784271 -10.563149 210 80 80
13.761838 103.522964 -9.144877 210 80 80
12.998541 105.159958 -9.225954 210 80 80
12.278858 106.720085 -9.010195 210 80 80
11.768874 108.413345 -8.611058 210 80 80
9.311356 108.243843 -9.585317 210 80 80
9.223942 110.085480 -9.151711 210 80 80
9.011246 111.908333 -8.809929 210 80 80
9.034208 113.687592 -8.711031 210 80 80
9.081179 115.597954 -8.798557 210 80 80
9.125301 117.743011 -8.959458 210 80 80
9.334745 120.012825 -9.323461 210 80 80
9.757345 122.299622 -9.761385 210 80 80
10.456973 124.462059 -10.237132 210 80 80
11.341289 126.612328 -10.593498 210 80 80
12.427003 128.873291 -10.713901 210 80 80
13.920264 130.866943 -10.678137 210 80 80
12.217171 132.692444 -11.795753 210 80 80
10.758451 135.127640 -12.368281 210 80 80
9.755984 137.502762 -12.411166 210 80 80
9.056268 139.657516 -12.083797 210 80 80
8.539207 141.521179 -11.571650 210 80 80
8.129021 143.095444 -10.991689 210 80 80
7.784707 144.490280 -10.369402 210 80 80
19.981623 91.972198 1.624400 210 80 80
19.774334 91.799286 -0.849721 210 80 80
19.148476 91.518417 -3.016584 210 80 80
18.293142 91.167145 -4.938776 210 80 80
18.680691 89.362740 -4.624892 210 80 80
17.688101 88.871750 -6.134544 210 80 80
16.402018 88.251709 -7.596913 210 80 80
14.820090 87.383980 -8.761499 210 80 80
12.984386 86.431984 -9.552378 210 80 80
10.724685 85.282112 -9.842097 210 80 80
8.727559 84.549255 -9.759483 210 80 80
7.019915 83.827820 -9.209893 210 80 80
7.378984 86.633911 -10.865781 210 80 80
7.491398 89.817596 -12.443831 210 80 80
7.297059 91.899681 -13.245056 210 80 80
7.020365 93.581398 -13.642478 210 80 80
6.685929 95.177681 -13.804751 210 80 80
6.268742 96.711647 -13.809760 210 80 80
5.745897 98.036362 -13.683879 210 80 80
6.904856 98.582413 -13.470889 210 80 80
8.215402 99.177734 -13.096051 210 80 80
9.677041 99.813095 -12.503758 210 80 80
11.270732 100.452080 -11.648841 210 80 80
12.875937 101.138504 -10.432275 210 80 80
14.426589 101.814514 -8.898004 210 80 80
15.875770 102.434044 -7.055588 210 80 80
15.385823 104.151215 -7.318681 210 80 80
14.884939 105.677887 -7.435575 210 80 80
14.348851 107.118889 -7.266216 210 80 80
13.856905 108.643715 -7.098852 210 80 80
13.505520 110.241249 -6.939089 210 80 80
11.485080 110.125175 -8.292974 210 80 80
11.206911 111.844528 -8.038017 210 80 80
11.198469 113.568291 -7.906797 210 80 80
11.144864 115.405998 -7.807703 210 80 80
11.104633 117.419662 -7.779297 210 80 80
11.318559 119.528877 -8.091536 210 80 80
11.804480 121.646049 -8.495281 210 80 80
12.520443 123.673370 -8.845402 210 80 80
13.411577 125.667000 -9.013129 210 80 80
14.377453 127.754967 -9.153827 210 80 80
15.498031 129.664810 -9.255584 210 80 80
16.678371 131.304657 -9.405766 210 80 80
15.384972 132.429962 -10.532912 210 80 80
14.024651 134.006317 -11.319878 210 80 80
12.756975 136.027145 -11.760735 210 80 80
11.738817 138.169037 -11.833570 210 80 80
10.992104 140.142822 -11.594393 210 80 80
10.428543 141.885239 -11.178888 210 80 80
9.987552 143.382309 -10.656345 210 80 80
9.627342 144.705154 -10.048835 210 80 80
19.378782 93.682495 -1.032303 210 80 80
18.728973 93.379417 -3.251457 210 80 80
17.865791 92.984650 -5.260486 210 80 80
16.924017 92.505943 -6.963325 210 80 80
17.330027 90.662239 -6.567224 210 80 80
16.108816 90.097679 -8.099627 210 80 80
14.630619 89.471886 -9.437143 210 80 80
12.905972 88.751038 -10.359249 210 80 80
10.998185 88.134468 -11.019968 210 80 80
9.141592 87.404961 -11.143546 210 80 80
9.119990 90.189560 -12.348017 210 80 80
8.836606 92.176216 -13.025069 210 80 80
8.492308 93.891579 -13.394252 210 80 80
8.066918 95.562813 -13.557821 210 80 80
7.544960 97.172485 -13.576428 210 80 80
8.960275 97.699242 -13.146327 210 80 80
10.475930 98.256889 -12.453559 210 80 80
12.036807 98.811691 -11.451099 210 80 80
13.600686 99.377449 -10.184676 210 80 80
14.989638 100.010780 -8.489630 210 80 80
16.280296 100.571510 -6.648776 210 80 80
17.376875 101.034111 -4.522113 210 80 80
17.107035 102.905396 -4.904081 210 80 80
16.781265 104.540993 -5.182142 210 80 80
16.383095 106.001518 -5.313751 210 80 80
15.855712 107.444145 -5.280488 210 80 80
15.477086 108.898956 -5.159809 210 80 80
15.111093 110.429321 -5.131024 210 80 80
14.851356 112.022652 -4.992924 210 80 80
13.168339 111.893005 -6.785470 210 80 80
13.116658 113.587639 -6.583418 210 80 80
12.929969 115.359947 -6.344074 210 80 80
12.786450 117.225510 -6.247508 210 80 80
13.017494 119.157295 -6.462978 210 80 80
13.464884 121.213486 -6.774825 210 80 80
14.131353 123.282837 -7.014043 210 80 80
14.955022 125.233994 -7.206959 210 80 80
15.799615 127.122276 -7.427280 210 80 80
16.757336 128.901657 -7.734624 210 80 80
17.721426 130.531601 -8.012850 210 80 80
18.595442 131.818359 -8.305888 210 80 80
17.780207 132.595032 -9.564158 210 80 80
16.675905 133.720383 -10.446244 210 80 80
15.489674 135.222000 -10.979647 210 80 80
14.369776 136.998459 -11.176317 210 80 80
13.438300 138.880325 -11.154746 210 80 80
12.697076 140.639633 -10.916997 210 80 80
12.112818 142.212021 -10.541505 210 80 80
11.649018 143.590393 -10.053118 210 80 80
11.278680 144.814957 -9.449824 210 80 80
12.648434 144.847519 -8.792392 210 80 80
13.783968 144.886703 -8.171136 210 80 80
14.749201 144.980957 -7.592855 210 80 80
15.572435 145.105576 -6.952317 210 80 80
19.325954 95.857117 1.267179 210 80 80
18.969063 95.668434 -1.274795 210 80 80
18.331802 95.301994 -3.522251 210 80 80
17.430538 94.824417 -5.557166 210 80 80
16.440994 94.352234 -7.378569 210 80 80
15.330253 93.882378 -8.944318 210 80 80
15.737275 91.965607 -8.535313 210 80 80
14.251156 91.423813 -10.042349 210 80 80
12.609567 90.965614 -11.205860 210 80 80
10.831992 90.599808 -12.045683 210 80 80
10.499502 92.516052 -12.552887 210 80 80
10.084793 94.291306 -12.901315 210 80 80
9.579087 96.035477 -13.085315 210 80 80
11.155566 96.548325 -12.311851 210 80 80
12.717234 97.062103 -11.203524 210 80 80
14.177131 97.571602 -9.821836 210 80 80
15.519505 98.119659 -8.098403 210 80 80
16.660000 98.644478 -6.181008 210 80 80
17.639641 99.108162 -4.125536 210 80 80
18.421467 99.387878 -1.732116 210 80 80
18.273767 101.302101 -2.141239 210 80 80
18.088903 103.110023 -2.493668 210 80 80
17.806543 104.697693 -2.761381 210 80 80
17.389698 106.191734 -2.897627 210 80 80
16.913094 107.651985 -3.003372 210 80 80
16.595442 109.072754 -2.890449 210 80 80
16.312265 110.532745 -2.892362 210 80 80
16.070494 112.108002 -2.703739 210 80 80
15.820291 113.840958 -2.502024 210 80 80
14.683801 113.708496 -4.756390 210 80 80
14.366640 115.426437 -4.484941 210 80 80
14.160696 117.163025 -4.359556 210 80 80
14.343208 119.026245 -4.465017 210 80 80
14.698209 120.991570 -4.652662 210 80 80
15.349321 123.009651 -4.958813 210 80 80
16.142893 124.938553 -5.214896 210 80 80
16.954962 126.752632 -5.565238 210 80 80
17.674891 128.437180 -6.002612 210 80 80
18.334194 129.999725 -6.375242 210 80 80
18.978802 131.178131 -6.749377 210 80 80
19.817917 131.743164 -7.215000 210 80 80
19.362579 132.760742 -8.559086 210 80 80
18.641472 133.768112 -9.591676 210 80 80
17.725889 134.942413 -10.274122 210 80 80
16.708050 136.364578 -10.614347 210 80 80
15.692078 137.962067 -10.623074 210 80 80
14.844196 139.590103 -10.494576 210 80 80
14.122879 141.130264 -10.207042 210 80 80
13.521350 142.513214 -9.815049 210 80 80
13.030026 143.739532 -9.340587 210 80 80
19.548286 130.892105 -5.315158 210 80 80
19.283356 130.924911 -3.384614 210 80 80
19.107912 131.381531 -1.317200 210 80 80
19.281282 131.997025 0.616957 210 80 80
25.569471 136.504623 -7.305179 210 80 80
24.541555 135.630875 -8.238499 210 80 80
23.341021 134.684235 -8.740594 210 80 80
22.090027 133.747986 -8.829755 210 80 80
20.906866 132.814621 -8.382477 210 80 80
14.194637 143.947113 -8.712826 210 80 80
15.201921 144.174957 -8.066342 210 80 80
16.097708 144.434723 -7.369550 210 80 80
16.928055 144.774185 -6.569201 210 80 80
17.867924 126.928299 1.492132 210 80 80
19.034075 97.696045 1.080633 210 80 80
18.624784 97.543228 -1.475110 210 80 80
17.960083 97.210968 -3.800439 210 80 80
17.069506 96.753059 -5.847125 210 80 80
15.964289 96.211319 -7.729041 210 80 80
14.757879 95.742897 -9.405336 210 80 80
13.308454 95.269287 -10.934907 210 80 80
13.846371 93.416656 -10.551446 210 80 80
12.208699 92.951836 -11.782314 210 80 80
11.730917 94.757195 -12.084885 210 80 80
18.874884 99.509979 0.885926 210 80 80
18.633469 101.322311 0.650226 210 80 80
18.431541 103.096184 0.303447 210 80 80
18.166452 104.737785 0.009254 210 80 80
17.823870 106.229706 -0.229939 210 80 80
17.473913 107.697037 -0.400428 210 80 80
17.214931 109.090309 -0.365048 210 80 80
16.971830 110.510017 -0.294845 210 80 80
16.713428 112.142143 -0.125691 210 80 80
16.429956 113.872498 0.060126 210 80 80
15.993303 115.532867 0.212372 210 80 80
15.420206 115.511215 -2.270504 210 80 80
15.193915 117.200523 -2.162403 210 80 80
15.280228 119.046028 -2.183073 210 80 80
15.562095 120.993309 -2.328861 210 80 80
16.122368 122.973099 -2.630848 210 80 80
16.911428 124.911949 -3.020464 210 80 80
17.571499 126.791306 -3.429059 210 80 80
18.115370 128.473145 -3.902489 210 80 80
18.564695 129.806274 -4.457740 210 80 80
18.999901 130.711609 -4.974733 210 80 80
18.863508 130.791138 -2.871710 210 80 80
18.824059 131.110886 -0.769510 210 80 80
18.939766 131.614777 1.245455 210 80 80
24.755489 137.588837 -7.245241 210 80 80
23.771790 136.720200 -8.330242 210 80 80
22.612564 135.723816 -8.937149 210 80 80
21.418604 134.780472 -9.134230 210 80 80
20.325737 133.758347 -8.985252 210 80 80
19.603342 134.884537 -9.600621 210 80 80
18.759323 136.084000 -10.019230 210 80 80
17.826017 137.435608 -10.176788 210 80 80
16.877525 138.873611 -10.056981 210 80 80
16.076260 140.306931 -9.900230 210 80 80
15.353340 141.656799 -9.582248 210 80 80
14.722903 142.873184 -9.181089 210 80 80
15.772798 143.241333 -8.498263 210 80 80
16.708815 143.621964 -7.730031 210 80 80
17.583958 144.013245 -6.889984 210 80 80
18.431238 144.467606 -5.976515 210 80 80
17.686937 145.205902 -5.670656 210 80 80
18.329214 128.795776 0.730405 210 80 80
18.258465 128.612274 -1.570914 210 80 80
17.844585 126.770912 -0.966610 210 80 80
17.228485 124.854744 -0.451668 210 80 80
16.543447 122.899269 -0.082008 210 80 80
16.008425 121.005035 0.148956 210 80 80
15.754422 119.042000 0.271532 210 80 80
15.745532 117.220200 0.289473 210 80 80
18.562979 129.990494 -2.242790 210 80 80
18.612179 130.217209 -0.032152 210 80 80
25.337465 139.606781 -4.635368 210 80 80
24.770605 139.217606 -5.985445 210 80 80
23.929195 138.625427 -7.195271 210 80 80
22.917044 137.833405 -8.260285 210 80 80
21.827944 136.858063 -9.085340 210 80 80
20.678801 135.914688 -9.473273 210 80 80
19.829784 137.110016 -9.656752 210 80 80
18.894978 138.404602 -9.615028 210 80 80
17.991034 139.717880 -9.446473 210 80 80
17.180483 140.983078 -9.215144 210 80 80
16.437056 142.171356 -8.882071 210 80 80
17.413885 142.667282 -8.079693 210 80 80
18.335224 143.165085 -7.189190 210 80 80
19.229958 143.665085 -6.216166 210 80 80
20.015324 144.141739 -5.162163 210 80 80
19.116974 144.934067 -4.951901 210 80 80
24.856537 141.038803 -0.266849 210 80 80
25.024153 141.088165 -1.702405 210 80 80
24.892504 140.946564 -3.134708 210 80 80
24.514853 140.641022 -4.551261 210 80 80
23.909693 140.228729 -5.899803 210 80 80
23.056206 139.650269 -7.149020 210 80 80
22.010113 138.920654 -8.193062 210 80 80
20.912447 138.062119 -9.040846 210 80 80
19.974049 139.266464 -8.931727 210 80 80
19.072090 140.462189 -8.737894 210 80 80
18.205971 141.606857 -8.417317 210 80 80
19.175714 142.188049 -7.497541 210 80 80
20.112289 142.734070 -6.472295 210 80 80
20.957632 143.240128 -5.365664 210 80 80
21.573372 143.679504 -4.185129 210 80 80
20.559616 144.553085 -4.037809 210 80 80
19.590286 145.300461 -3.856183 210 80 80
19.942362 145.568802 -2.733279 210 80 80
23.960339 142.125336 -0.216619 210 80 80
24.129938 142.158188 -1.638788 210 80 80
24.003859 142.002151 -3.069219 210 80 80
23.612179 141.688004 -4.448795 210 80 80
22.964085 141.246582 -5.758572 210 80 80
22.085379 140.687744 -6.981659 210 80 80
21.070766 140.030060 -8.083439 210 80 80
20.095552 141.129440 -7.810289 210 80 80
21.077578 141.725861 -6.741625 210 80 80
21.954792 142.256210 -5.568142 210 80 80
22.611843 142.703934 -4.316566 210 80 80
23.001965 143.031998 -2.997071 210 80 80
21.945854 144.011337 -2.943002 210 80 80
20.917730 144.866959 -2.862461 210 80 80
21.093426 145.034210 -1.636058 210 80 80
21.036226 145.025162 -0.394436 210 80 80
22.000460 144.182510 -0.319027 210 80 80
22.991674 143.194565 -0.249523 210 80 80
23.132753 143.207214 -1.627647 210 80 80
22.095913 144.186432 -1.645304 210 80 80
-1.940881 144.880493 -9.499236 210 80 80
-2.026484 143.482010 -9.926168 210 80 80
-2.134801 141.939423 -10.362199 210 80 80
-2.272329 140.168442 -10.794390 210 80 80
-2.417040 138.137299 -11.224083 210 80 80
-2.574464 135.894760 -11.616555 210 80 80
-2.696283 133.494171 -11.957030 210 80 80
-2.765841 131.010086 -12.146025 210 80 80
-2.725071 128.446091 -11.866931 210 80 80
-2.624673 125.949608 -11.425855 210 80 80
-2.463121 123.538094 -10.866098 210 80 80
-2.315963 121.218872 -10.158046 210 80 80
-2.267335 118.878410 -9.416540 210 80 80
-2.288452 116.644760 -8.852902 210 80 80
-2.317684 114.604324 -8.572552 210 80 80
-2.246349 112.624939 -8.592933 210 80 80
-2.195326 110.716187 -9.021184 210 80 80
-2.225616 108.920486 -9.775887 210 80 80
-2.148421 107.237724 -10.631957 210 80 80
-2.223283 105.713943 -11.304887 210 80 80
-2.930430 104.186531 -11.897370 210 80 80
-2.129126 102.767998 -12.446573 210 80 80
-1.627654 101.707703 -12.777883 210 80 80
-1.288585 100.788834 -13.004244 210 80 80
-1.080330 99.888275 -13.186611 210 80 80
-0.979821 98.914986 -13.361977 210 80 80
-1.024037 97.901138 -13.457637 210 80 80
-1.095688 96.809196 -13.500984 210 80 80
-1.190777 95.575348 -13.475464 210 80 80
-1.374816 94.191437 -13.366877 210 80 80
-1.417166 92.808647 -13.113408 210 80 80
-1.609226 91.054535 -12.487205 210 80 80
-1.430741 88.356377 -10.955541 210 80 80
-1.709948 84.917648 -8.199782 210 80 80
-1.751706 82.843674 -5.661188 210 80 80
-1.295824 81.817093 -4.018921 210 80 80
-0.820808 80.880943 -2.645810 210 80 80
-0.597218 80.226578 -0.709258 210 80 80
-0.620019 80.289497 2.458517 210 80 80
-3.840831 145.137344 -9.710545 210 80 80
-3.988530 143.771698 -10.205812 210 80 80
-4.164608 142.287628 -10.685237 210 80 80
-4.439051 140.601456 -11.241138 210 80 80
-4.724302 138.589676 -11.771005 210 80 80
-5.075712 136.295547 -12.257024 210 80 80
-5.475906 133.742233 -12.563910 210 80 80
-5.754948 131.016541 -12.475937 210 80 80
-5.634932 128.205582 -12.032452 210 80 80
-5.292756 125.654106 -11.545836 210 80 80
-4.954313 123.271965 -11.040346 210 80 80
-4.706454 120.916939 -10.510049 210 80 80
-4.631378 118.547523 -9.929395 210 80 80
-4.597910 116.330025 -9.390762 210 80 80
-4.523270 114.258698 -9.013691 210 80 80
-4.493944 112.371246 -9.061324 210 80 80
-4.410638 110.559570 -9.350587 210 80 80
-4.439708 108.742172 -9.947139 210 80 80
-4.193979 107.155945 -10.627194 210 80 80
-3.817046 106.038055 -11.171010 210 80 80
-5.132870 105.422348 -11.352903 210 80 80
-7.158130 104.550072 -11.494300 210 80 80
-5.444375 103.328712 -12.138841 210 80 80
-4.139167 102.201035 -12.617031 210 80 80
-3.208453 101.251045 -12.933341 210 80 80
-2.573465 100.398895 -13.143041 210 80 80
-2.162840 99.583748 -13.309268 210 80 80
-1.982555 98.777740 -13.448711 210 80 80
-2.095383 97.933327 -13.550975 210 80 80
-2.275334 96.943359 -13.645806 210 80 80
-2.492388 95.721222 -13.670028 210 80 80
-2.700676 94.320251 -13.586025 210 80 80
-2.830278 92.823425 -13.374724 210 80 80
-2.982359 91.112511 -12.805770 210 80 80
-2.989326 88.306091 -11.289133 210 80 80
-3.107748 84.941948 -8.667949 210 80 80
-2.995775 82.720947 -6.515768 210 80 80
-2.398390 81.532433 -5.209463 210 80 80
-1.858268 80.624786 -3.632125 210 80 80
-1.284090 79.321800 -1.970190 210 80 80
-2.316525 79.280617 -4.295034 210 80 80
-3.776038 79.409653 -6.075341 210 80 80
-5.616602 79.573425 -7.255302 210 80 80
-7.648278 79.823898 -8.073518 210 80 80
-9.774617 80.195381 -8.449574 210 80 80
-12.023476 80.755684 -8.308535 210 80 80
-14.259395 81.698921 -7.833216 210 80 80
-16.288836 82.791176 -6.936919 210 80 80
-18.012335 83.808884 -5.580703 210 80 80
-19.367439 84.616653 -3.795018 210 80 80
-20.214355 85.276794 -1.616839 210 80 80
-20.485401 86.174187 1.062906 210 80 80
-5.709322 145.433701 -9.787041 210 80 80
-5.891148 144.141907 -10.380959 210 80 80
-6.160686 142.712524 -10.967586 210 80 80
-6.529619 141.098450 -11.586721 210 80 80
-6.937785 139.176498 -12.165708 210 80 80
-7.501889 136.917404 -12.651786 210 80 80
-8.298203 134.294739 -12.824627 210 80 80
-9.549089 130.911453 -12.221272 210 80 80
-8.640504 127.708961 -11.650021 210 80 80
-7.983043 125.234512 -11.142444 210 80 80
-7.472059 122.933266 -10.651122 210 80 80
-7.146767 120.563591 -10.173403 210 80 80
-6.980743 118.148293 -9.687853 210 80 80
-6.857248 115.890671 -9.306757 210 80 80
-6.789829 113.926765 -9.054478 210 80 80
-6.728852 112.044250 -9.089324 210 80 80
-6.789327 110.300751 -9.457129 210 80 80
-6.724424 108.572334 -9.962707 210 80 80
-6.308464 106.852776 -10.689248 210 80 80
-9.285847 106.167061 -10.437528 210 80 80
-10.897099 104.360832 -10.574317 210 80 80
-9.038793 103.288345 -11.644877 210 80 80
-7.394559 102.297684 -12.377507 210 80 80
-5.980188 101.405060 -12.860012 210 80 80
-4.810236 100.583023 -13.147584 210 80 80
-3.907341 99.806396 -13.349127 210 80 80
-3.242082 99.112381 -13.467953 210 80 80
-2.786244 98.659767 -13.518815 210 80 80
-3.152837 98.106331 -13.622839 210 80 80
-3.516076 97.198936 -13.750330 210 80 80
-3.802837 95.960709 -13.836288 210 80 80
-4.036595 94.532341 -13.808459 210 80 80
-4.239195 93.018265 -13.621851 210 80 80
-4.423687 91.298012 -13.104192 210 80 80
-4.531653 88.537025 -11.671456 210 80 80
-4.508596 85.121605 -9.270230 210 80 80
-4.238545 82.874580 -7.556888 210 80 80
-3.619741 81.523109 -6.385170 210 80 80
-2.844156 80.499863 -5.359568 210 80 80
-4.288104 80.557526 -6.615709 210 80 80
-6.015071 80.688705 -7.580686 210 80 80
-7.934847 80.955666 -8.273560 210 80 80
-10.010465 81.455986 -8.741451 210 80 80
-12.334298 82.198097 -8.483659 210 80 80
-14.518543 83.411385 -8.008172 210 80 80
-16.300159 84.534760 -7.188111 210 80 80
-17.882191 85.432304 -5.873086 210 80 80
-19.150846 86.153847 -4.187170 210 80 80
-19.931511 86.697823 -2.314466 210 80 80
-20.333473 87.115700 -0.750327 210 80 80
-20.249863 88.327248 -0.731569 210 80 80
-7.784707 144.490280 -10.369402 210 80 80
-8.129021 143.095444 -10.991689 210 80 80
-8.539207 141.521179 -11.571650 210 80 80
-9.056268 139.657516 -12.083797 210 80 80
-9.755984 137.502762 -12.411166 210 80 80
-10.758451 135.127640 -12.368281 210 80 80
-12.217171 132.692444 -11.795753 210 80 80
-13.920264 130.866943 -10.678137 210 80 80
-12.427003 128.873291 -10.713901 210 80 80
-11.341289 126.612328 -10.593498 210 80 80
-10.456973 124.462059 -10.237132 210 80 80
-9.757345 122.299622 -9.761385 210 80 80
-9.334745 120.012825 -9.323461 210 80 80
-9.125301 117.743011 -8.959458 210 80 80
-9.081179 115.597954 -8.798557 210 80 80
-9.034208 113.687592 -8.711031 210 80 80
-9.011246 111.908333 -8.809929 210 80 80
-9.223942 110.085480 -9.151711 210 80 80
-9.311356 108.243843 -9.585317 210 80 80
-11.768874 108.413345 -8.611058 210 80 80
-12.278858 106.720085 -9.010195 210 80 80
-12.998541 105.159958 -9.225954 210 80 80
-13.761838 103.522964 -9.144877 210 80 80
-11.989446 102.784271 -10.563149 210 80 80
-10.342079 101.952843 -11.715007 210 80 80
-8.743972 101.130859 -12.476194 210 80 80
-7.314900 100.378494 -13.007066 210 80 80
-6.083100 99.686249 -13.332026 210 80 80
-5.022812 99.052017 -13.527491 210 80 80
-4.097112 98.492096 -13.619298 210 80 80
-4.673255 97.559090 -13.786766 210 80 80
-5.077151 96.319038 -13.894096 210 80 80
-5.402285 94.853638 -13.883495 210 80 80
-5.667559 93.310509 -13.715903 210 80 80
-5.880245 91.644753 -13.275696 210 80 80
-5.958523 89.303093 -12.251328 210 80 80
-5.878387 85.841232 -10.224839 210 80 80
-5.567937 83.251442 -8.472990 210 80 80
-4.968741 81.639809 -7.361204 210 80 80
-6.530742 81.915085 -8.146797 210 80 80
-8.323352 82.349503 -8.753927 210 80 80
-10.341856 83.014290 -9.131121 210 80 80
-12.730558 84.035614 -8.896069 210 80 80
-14.814520 85.292587 -8.249019 210 80 80
-16.448622 86.305092 -7.286525 210 80 80
-17.816952 87.056366 -5.988342 210 80 80
-18.926601 87.661873 -4.388992 210 80 80
-19.738186 88.119598 -2.660696 210 80 80
-19.484266 89.742668 -2.864298 210 80 80
-20.046766 89.991692 -0.741394 210 80 80
-9.627342 144.705154 -10.048835 210 80 80
-9.987552 143.382309 -10.656345 210 80 80
-10.428543 141.885239 -11.178888 210 80 80
-10.992104 140.142822 -11.594393 210 80 80
-11.738817 138.169037 -11.833570 210 80 80
-12.756975 136.027145 -11.760735 210 80 80
-14.024651 134.006317 -11.319878 210 80 80
-15.384972 132.429962 -10.532912 210 80 80
-16.678371 131.304657 -9.405766 210 80 80
-15.498031 129.664810 -9.255584 210 80 80
-14.377453 127.754967 -9.153827 210 80 80
-13.411577 125.667000 -9.013129 210 80 80
-12.520443 123.673370 -8.845402 210 80 80
-11.804480 121.646049 -8.495281 210 80 80
-11.318559 119.528877 -8.091536 210 80 80
-11.104633 117.419662 -7.779297 210 80 80
-11.144864 115.405998 -7.807703 210 80 80
-11.198469 113.568291 -7.906797 210 80 80
-11.206911 111.844528 -8.038017 210 80 80
-11.485080 110.125175 -8.292974 210 80 80
-13.505520 110.241249 -6.939089 210 80 80
-13.856905 108.643715 -7.098852 210 80 80
-14.348851 107.118889 -7.266216 210 80 80
-14.884939 105.677887 -7.435575 210 80 80
-15.385823 104.151215 -7.318681 210 80 80
-15.875770 102.434044 -7.055588 210 80 80
-14.426589 101.814514 -8.898004 210 80 80
-12.875937 101.138504 -10.432275 210 80 80
-11.270732 100.452080 -11.648841 210 80 80
-9.677041 99.813095 -12.503758 210 80 80
-8.215402 99.177734 -13.096051 210 80 80
-6.904856 98.582413 -13.470889 210 80 80
-5.745897 98.036362 -13.683879 210 80 80
-6.268742 96.711647 -13.809760 210 80 80
-6.685929 95.177681 -13.804751 210 80 80
-7.020365 93.581398 -13.642478 210 80 80
-7.297059 91.899681 -13.245056 210 80 80
-7.491398 89.817596 -12.443831 210 80 80
-7.378984 86.633911 -10.865781 210 80 80
-7.019915 83.827820 -9.209893 210 80 80
-8.727559 84.549255 -9.759483 210 80 80
-10.724685 85.282112 -9.842097 210 80 80
-12.984386 86.431984 -9.552378 210 80 80
-14.820090 87.383980 -8.761499 210 80 80
-16.402018 88.251709 -7.596913 210 80 80
-17.688101 88.871750 -6.134544 210 80 80
-18.680691 89.362740 -4.624892 210 80 80
-18.293142 91.167145 -4.938776 210 80 80
-19.148476 91.518417 -3.016584 210 80 80
-19.774334 91.799286 -0.849721 210 80 80
-19.981623 91.972198 1.624400 210 80 80
-11.278680 144.814957 -9.449824 210 80 80
-11.649018 143.590393 -10.053118 210 80 80
-12.112818 142.212021 -10.541505 210 80 80
-12.697076 140.639633 -10.916997 210 80 80
-13.438300 138.880325 -11.154746 210 80 80
-14.369776 136.998459 -11.176317 210 80 80
-15.489674 135.222000 -10.979647 210 80 80
-16.675905 133.720383 -10.446244 210 80 80
-17.780207 132.595032 -9.564158 210 80 80
-18.595442 131.818359 -8.305888 210 80 80
-17.721426 130.531601 -8.012850 210 80 80
-16.757336 128.901657 -7.734624 210 80 80
-15.799615 127.122276 -7.427280 210 80 80
-14.955022 125.233994 -7.206959 210 80 80
-14.131353 123.282837 -7.014043 210 80 80
-13.464884 121.213486 -6.774825 210 80 80
-13.017494 119.157295 -6.462978 210 80 80
-12.786450 117.225510 -6.247508 210 80 80
-12.929969 115.359947 -6.344074 210 80 80
-13.116658 113.587639 -6.583418 210 80 80
-13.168339 111.893005 -6.785470 210 80 80
-14.851356 112.022652 -4.992924 210 80 80
-15.111093 110.429321 -5.131024 210 80 80
-15.477086 108.898956 -5.159809 210 80 80
-15.855712 107.444145 -5.280488 210 80 80
-16.383095 106.001518 -5.313751 210 80 80
-16.781265 104.540993 -5.182142 210 80 80
-17.107035 102.905396 -4.904081 210 80 80
-17.376875 101.034111 -4.522113 210 80 80
-16.280296 100.571510 -6.648776 210 80 80
-14.989638 100.010780 -8.489630 210 80 80
-13.600686 99.377449 -10.184676 210 80 80
-12.036807 98.811691 -11.451099 210 80 80
-10.475930 98.256889 -12.453559 210 80 80
-8.960275 97.699242 -13.146327 210 80 80
-7.544960 97.172485 -13.576428 210 80 80
-8.066918 95.562813 -13.557821 210 80 80
-8.492308 93.891579 -13.394252 210 80 80
-8.836606 92.176216 -13.025069 210 80 80
-9.119990 90.189560 -12.348017 210 80 80
-9.141592 87.404961 -11.143546 210 80 80
-10.998185 88.134468 -11.019968 210 80 80
-12.905972 88.751038 -10.359249 210 80 80
-14.630619 89.471886 -9.437143 210 80 80
-16.108816 90.097679 -8.099627 210 80 80
-17.330027 90.662239 -6.567224 210 80 80
-16.924017 92.505943 -6.963325 210 80 80
-17.865791 92.984650 -5.260486 210 80 80
-18.728973 93.379417 -3.251457 210 80 80
-19.378782 93.682495 -1.032303 210 80 80
-12.648434 144.847519 -8.792392 210 80 80
-13.030026 143.739532 -9.340587 210 80 80
-13.521350 142.513214 -9.815049 210 80 80
-14.122879 141.130264 -10.207042 210 80 80
-14.844196 139.590103 -10.494576 210 80 80
-15.692078 137.962067 -10.623074 210 80 80
-16.708050 136.364578 -10.614347 210 80 80
-17.725889 134.942413 -10.274122 210 80 80
-18.641472 133.768112 -9.591676 210 80 80
-19.362579 132.760742 -8.559086 210 80 80
-19.817917 131.743164 -7.215000 210 80 80
-18.978802 131.178131 -6.749377 210 80 80
-18.334194 129.999725 -6.375242 210 80 80
-17.674891 128.437180 -6.002612 210 80 80
-16.954962 126.752632 -5.565238 210 80 80
-16.142893 124.938553 -5.214896 210 80 80
-15.349321 123.009651 -4.958813 210 80 80
-14.698209 120.991570 -4.652662 210 80 80
-14.343208 119.026245 -4.465017 210 80 80
-14.160696 117.163025 -4.359556 210 80 80
-14.366640 115.426437 -4.484941 210 80 80
-14.683801 113.708496 -4.756390 210 80 80
-15.820291 113.840958 -2.502024 210 80 80
-16.070494 112.108002 -2.703739 210 80 80
-16.312265 110.532745 -2.892362 210 80 80
-16.595442 109.072754 -2.890449 210 80 80
-16.913094 107.651985 -3.003372 210 80 80
-17.389698 106.191734 -2.897627 210 80 80
-17.806543 104.697693 -2.761381 210 80 80
-18.088903 103.110023 -2.493668 210 80 80
-18.273767 101.302101 -2.141239 210 80 80
-18.421467 99.387878 -1.732116 210 80 80
-17.639641 99.108162 -4.125536 210 80 80
-16.660000 98.644478 -6.181008 210 80 80
-15.519505 98.119659 -8.098403 210 80 80
-14.177131 97.571602 -9.821836 210 80 80
-12.717234 97.062103 -11.203524 210 80 80
-11.155566 96.548325 -12.311851 210 80 80
-9.579087 96.035477 -13.085315 210 80 80
-10.084793 94.291306 -12.901315 210 80 80
-10.499502 92.516052 -12.552887 210 80 80
-10.831992 90.599808 -12.045683 210 80 80
-12.609567 90.965614 -11.205860 210 80 80
-14.251156 91.423813 -10.042349 210 80 80
-15.737275 91.965607 -8.535313 210 80 80
-15.330253 93.882378 -8.944318 210 80 80
-16.440994 94.352234 -7.378569 210 80 80
-17.430538 94.824417 -5.557166 210 80 80
-18.331802 95.301994 -3.522251 210 80 80
-18.969063 95.668434 -1.274795 210 80 80
-19.325954 95.857117 1.267179 210 80 80
-15.572435 145.105576 -6.952317 210 80 80
-14.749201 144.980957 -7.592855 210 80 80
-13.783968 144.886703 -8.171136 210 80 80
-20.906866 132.814621 -8.382477 210 80 80
-22.090027 133.747986 -8.829755 210 80 80
-23.341021 134.684235 -8.740594 210 80 80
-24.541555 135.630875 -8.238499 210 80 80
-25.569471 136.504623 -7.305179 210 80 80
-19.281282 131.997025 0.616957 210 80 80
-19.107912 131.381531 -1.317200 210 80 80
-19.283356 130.924911 -3.384614 210 80 80
-19.548286 130.892105 -5.315158 210 80 80
-14.194637 143.947113 -8.712826 210 80 80
-14.722903 142.873184 -9.181089 210 80 80
-15.353340 141.656799 -9.582248 210 80 80
-16.076260 140.306931 -9.900230 210 80 80
-16.877525 138.873611 -10.056981 210 80 80
-17.826017 137.435608 -10.176788 210 80 80
-18.759323 136.084000 -10.019230 210 80 80
-19.603342 134.884537 -9.600621 210 80 80
-20.325737 133.758347 -8.985252 210 80 80
-21.418604 134.780472 -9.134230 210 80 80
-22.612564 135.723816 -8.937149 210 80 80
-23.771790 136.720200 -8.330242 210 80 80
-24.755489 137.588837 -7.245241 210 80 80
-18.939766 131.614777 1.245455 210 80 80
-18.824059 131.110886 -0.769510 210 80 80
-18.863508 130.791138 -2.871710 210 80 80
-18.999901 130.711609 -4.974733 210 80 80
-18.564695 129.806274 -4.457740 210 80 80
-18.115370 128.473145 -3.902489 210 80 80
-17.571499 126.791306 -3.429059 210 80 80
-16.911428 124.911949 -3.020464 210 80 80
-16.122368 122.973099 -2.630848 210 80 80
-15.562095 120.993309 -2.328861 210 80 80
-15.280228 119.046028 -2.183073 210 80 80
-15.193915 117.200523 -2.162403 210 80 80
-15.420206 115.511215 -2.270504 210 80 80
-15.993303 115.532867 0.212372 210 80 80
-16.429956 113.872498 0.060126 210 80 80
-16.713428 112.142143 -0.125691 210 80 80
-16.971830 110.510017 -0.294845 210 80 80
-17.214931 109.090309 -0.365048 210 80 80
-17.473913 107.697037 -0.400428 210 80 80
-17.823870 106.229706 -0.229939 210 80 80
-18.166452 104.737785 0.009254 210 80 80
-18.431541 103.096184 0.303447 210 80 80
-18.633469 101.322311 0.650226 210 80 80
-18.874884 99.509979 0.885926 210 80 80
-19.034075 97.696045 1.080633 210 80 80
-18.624784 97.543228 -1.475110 210 80 80
-17.960083 97.210968 -3.800439 210 80 80
-17.069506 96.753059 -5.847125 210 80 80
-15.964289 96.211319 -7.729041 210 80 80
-14.757879 95.742897 -9.405336 210 80 80
-13.308454 95.269287 -10.934907 210 80 80
-11.730917 94.757195 -12.084885 210 80 80
-12.208699 92.951836 -11.782314 210 80 80
-13.846371 93.416656 -10.551446 210 80 80
-17.867924 126.928299 1.492132 210 80 80
-16.928055 144.774185 -6.569201 210 80 80
-16.097708 144.434723 -7.369550 210 80 80
-15.201921 144.174957 -8.066342 210 80 80
-15.772798 143.241333 -8.498263 210 80 80
-16.437056 142.171356 -8.882071 210 80 80
-17.180483 140.983078 -9.215144 210 80 80
-17.991034 139.717880 -9.446473 210 80 80
-18.894978 138.404602 -9.615028 210 80 80
-19.829784 137.110016 -9.656752 210 80 80
-20.678801 135.914688 -9.473273 210 80 80
-21.827944 136.858063 -9.085340 210 80 80
-22.917044 137.833405 -8.260285 210 80 80
-23.929195 138.625427 -7.195271 210 80 80
-24.770605 139.217606 -5.985445 210 80 80
-25.337465 139.606781 -4.635368 210 80 80
-18.612179 130.217209 -0.032152 210 80 80
-18.562979 129.990494 -2.242790 210 80 80
-18.258465 128.612274 -1.570914 210 80 80
-17.844585 126.770912 -0.966610 210 80 80
-17.228485 124.854744 -0.451668 210 80 80
-16.543447 122.899269 -0.082008 210 80 80
-16.008425 121.005035 0.148956 210 80 80
-15.754422 119.042000 0.271532 210 80 80
-15.745532 117.220200 0.289473 210 80 80
-18.329214 128.795776 0.730405 210 80 80
-17.686937 145.205902 -5.670656 210 80 80
-18.431238 144.467606 -5.976515 210 80 80
-17.583958 144.013245 -6.889984 210 80 80
-16.708815 143.621964 -7.730031 210 80 80
-17.413885 142.667282 -8.079693 210 80 80
-18.205971 141.606857 -8.417317 210 80 80
-19.072090 140.462189 -8.737894 210 80 80
-19.974049 139.266464 -8.931727 210 80 80
-20.912447 138.062119 -9.040846 210 80 80
-22.010113 138.920654 -8.193062 210 80 80
-23.056206 139.650269 -7.149020 210 80 80
-23.909693 140.228729 -5.899803 210 80 80
-24.514853 140.641022 -4.551261 210 80 80
-24.892504 140.946564 -3.134708 210 80 80
-25.024153 141.088165 -1.702405 210 80 80
-24.856537 141.038803 -0.266849 210 80 80
-19.116974 144.934067 -4.951901 210 80 80
-20.015324 144.141739 -5.162163 210 80 80
-19.229958 143.665085 -6.216166 210 80 80
-18.335224 143.165085 -7.189190 210 80 80
-19.175714 142.188049 -7.497541 210 80 80
-20.095552 141.129440 -7.810289 210 80 80
-21.070766 140.030060 -8.083439 210 80 80
-22.085379 140.687744 -6.981659 210 80 80
-22.964085 141.246582 -5.758572 210 80 80
-23.612179 141.688004 -4.448795 210 80 80
-24.003859 142.002151 -3.069219 210 80 80
-24.129938 142.158188 -1.638788 210 80 80
-23.960339 142.125336 -0.216619 210 80 80
-19.942362 145.568802 -2.733279 210 80 80
-19.590286 145.300461 -3.856183 210 80 80
-20.559616 144.553085 -4.037809 210 80 80
-21.573372 143.679504 -4.185129 210 80 80
-20.957632 143.240128 -5.365664 210 80 80
-20.112289 142.734070 -6.472295 210 80 80
-21.077578 141.725861 -6.741625 210 80 80
-21.954792 142.256210 -5.568142 210 80 80
-22.611843 142.703934 -4.316566 210 80 80
-23.001965 143.031998 -2.997071 210 80 80
-23.132753 143.207214 -1.627647 210 80 80
-22.991674 143.194565 -0.249523 210 80 80
-22.000460 144.182510 -0.319027 210 80 80
-21.036226 145.025162 -0.394436 210 80 80
-21.093426 145.034210 -1.636058 210 80 80
-20.917730 144.866959 -2.862461 210 80 80
-21.945854 144.011337 -2.943002 210 80 80
-22.095913 144.186432 -1.645304 210 80 80
20.739861 130.881454 -6.793170 210 80 80
21.685431 131.638947 -7.977088 210 80 80
20.254583 130.337433 -5.272952 210 80 80
22.855135 132.511047 -8.569479 210 80 80
24.121494 133.442047 -8.544287 210 80 80
25.334314 134.433075 -8.048170 210 80 80
20.020864 131.501282 0.355062 210 80 80
19.852650 130.857956 -1.617279 210 80 80
20.030964 130.325760 -3.566582 210 80 80
21.300310 129.043137 -4.978096 210 80 80
21.797358 129.451309 -6.477128 210 80 80
22.710020 130.155212 -7.637732 210 80 80
23.817087 131.105423 -8.195618 210 80 80
21.102409 129.100952 -3.291682 210 80 80
25.036745 132.128479 -8.240514 210 80 80
21.153563 130.207596 0.333885 210 80 80
21.049694 129.584259 -1.375538 210 80 80
22.377010 127.544830 -2.930342 210 80 80
22.635372 127.389915 -4.499763 210 80 80
23.150349 127.795204 -5.973625 210 80 80
24.004251 128.587875 -7.095248 210 80 80
25.031609 129.569809 -7.665677 210 80 80
26.144999 130.651947 -7.788956 210 80 80
22.387112 127.972549 -1.326944 210 80 80
22.531185 128.621445 0.413155 210 80 80
23.802429 126.463310 -1.015953 210 80 80
23.854654 126.098640 -2.603677 210 80 80
24.141165 126.037193 -4.048136 210 80 80
24.672897 126.387947 -5.358355 210 80 80
25.441778 127.086121 -6.351131 210 80 80
25.479132 125.739433 0.778873 210 80 80
25.312031 125.145744 -0.801214 210 80 80
25.439032 124.803726 -2.257354 210 80 80
25.750755 124.725655 -3.592265 210 80 80
1.418198 77.573265 -1.714897 210 80 80
2.083261 77.658386 -4.025853 210 80 80
1.188996 77.646790 1.747200 210 80 80
3.561051 77.941704 -5.918782 210 80 80
5.469057 78.236389 -7.244884 210 80 80
7.517837 78.471481 -8.066888 210 80 80
9.671173 78.749985 -8.384528 210 80 80
11.924209 79.216278 -8.316236 210 80 80
14.162929 79.952820 -7.787669 210 80 80
16.262419 80.885094 -6.829454 210 80 80
18.078918 81.840340 -5.368344 210 80 80
19.459534 82.645088 -3.440888 210 80 80
20.291035 83.262550 -1.093282 210 80 80
20.417482 83.666542 1.599571 210 80 80
1.535389 75.932213 1.718947 210 80 80
1.711832 75.864479 -1.519054 210 80 80
2.302788 75.984818 -3.914052 210 80 80
3.616943 76.294510 -5.829354 210 80 80
5.479402 76.632423 -7.286910 210 80 80
7.472173 76.872658 -8.122497 210 80 80
9.657333 77.147385 -8.499041 210 80 80
11.926384 77.550919 -8.417319 210 80 80
14.163356 78.145042 -7.847095 210 80 80
16.230755 78.886261 -6.785684 210 80 80
18.028721 79.684265 -5.251630 210 80 80
19.405602 80.366302 -3.218431 210 80 80
20.145309 80.868973 -0.899829 210 80 80
20.292585 81.146881 1.662413 210 80 80
1.942589 74.154869 1.642413 210 80 80
2.050558 74.041718 -1.473547 210 80 80
2.669448 74.264519 -3.844673 210 80 80
3.810953 74.557304 -5.773042 210 80 80
5.587247 74.889267 -7.253012 210 80 80
7.563217 75.156067 -8.186266 210 80 80
9.709575 75.453308 -8.610218 210 80 80
11.953013 75.821121 -8.542554 210 80 80
14.179336 76.301765 -7.964653 210 80 80
16.230984 76.861359 -6.820009 210 80 80
17.958033 77.469635 -5.264561 210 80 80
19.231958 78.005661 -3.254156 210 80 80
19.940022 78.372459 -1.012451 210 80 80
20.119392 78.537521 1.475084 210 80 80
2.495015 72.229591 -1.408476 210 80 80
3.050533 72.506050 -3.773494 210 80 80
4.117030 72.783722 -5.760172 210 80 80
5.731291 73.038414 -7.262576 210 80 80
7.713939 73.330307 -8.239966 210 80 80
9.811711 73.705521 -8.740072 210 80 80
12.035679 74.105522 -8.706834 210 80 80
14.248202 74.496269 -8.101915 210 80 80
16.258953 74.878601 -6.911097 210 80 80
17.858547 75.257248 -5.307489 210 80 80
19.049234 75.598427 -3.377182 210 80 80
19.740076 75.843155 -1.232236 210 80 80
19.956696 75.990166 1.195007 210 80 80
6.061402 70.904060 -7.304562 210 80 80
7.910460 71.209106 -8.322822 210 80 80
9.989521 71.658318 -8.868024 210 80 80
12.208471 72.109291 -8.884076 210 80 80
14.390033 72.522591 -8.250207 210 80 80
16.323931 72.792130 -7.041353 210 80 80
17.846434 72.978851 -5.420375 210 80 80
18.903067 73.234993 -3.535580 210 80 80
19.525463 73.439812 -1.488940 210 80 80
19.751883 73.540611 0.798234 210 80 80
16.394558 70.603722 -7.203414 210 80 80
17.839460 70.737038 -5.590268 210 80 80
18.787123 70.926880 -3.742792 210 80 80
19.311668 70.961754 -1.740081 210 80 80
-21.685431 131.638947 -7.977088 210 80 80
-20.739861 130.881454 -6.793170 210 80 80
-20.254583 130.337433 -5.272952 210 80 80
-20.030964 130.325760 -3.566582 210 80 80
-19.852650 130.857956 -1.617279 210 80 80
-20.020864 131.501282 0.355062 210 80 80
-25.334314 134.433075 -8.048170 210 80 80
-24.121494 133.442047 -8.544287 210 80 80
-22.855135 132.511047 -8.569479 210 80 80
-23.817087 131.105423 -8.195618 210 80 80
-22.710020 130.155212 -7.637732 210 80 80
-21.797358 129.451309 -6.477128 210 80 80
-21.300310 129.043137 -4.978096 210 80 80
-21.102409 129.100952 -3.291682 210 80 80
-21.049694 129.584259 -1.375538 210 80 80
-21.153563 130.207596 0.333885 210 80 80
-25.036745 132.128479 -8.240514 210 80 80
-26.144999 130.651947 -7.788956 210 80 80
-25.031609 129.569809 -7.665677 210 80 80
-24.004251 128.587875 -7.095248 210 80 80
-23.150349 127.795204 -5.973625 210 80 80
-22.635372 127.389915 -4.499763 210 80 80
-22.377010 127.544830 -2.930342 210 80 80
-22.387112 127.972549 -1.326944 210 80 80
-22.531185 128.621445 0.413155 210 80 80
-25.441778 127.086121 -6.351131 210 80 80
-24.672897 126.387947 -5.358355 210 80 80
-24.141165 126.037193 -4.048136 210 80 80
-23.854654 126.098640 -2.603677 210 80 80
-23.802429 126.463310 -1.015953 210 80 80
-25.750755 124.725655 -3.592265 210 80 80
-25.439032 124.803726 -2.257354 210 80 80
-25.312031 125.145744 -0.801214 210 80 80
-25.479132 125.739433 0.778873 210 80 80
-2.083261 77.658386 -4.025853 210 80 80
-1.418198 77.573265 -1.714897 210 80 80
-1.188996 77.646790 1.747200 210 80 80
-20.417482 83.666542 1.599571 210 80 80
-20.291035 83.262550 -1.093282 210 80 80
-19.459534 82.645088 -3.440888 210 80 80
-18.078918 81.840340 -5.368344 210 80 80
-16.262419 80.885094 -6.829454 210 80 80
-14.162929 79.952820 -7.787669 210 80 80
-11.924209 79.216278 -8.316236 210 80 80
-9.671173 78.749985 -8.384528 210 80 80
-7.517837 78.471481 -8.066888 210 80 80
-5.469057 78.236389 -7.244884 210 80 80
-3.561051 77.941704 -5.918782 210 80 80
-3.616943 76.294510 -5.829354 210 80 80
-2.302788 75.984818 -3.914052 210 80 80
-1.711832 75.864479 -1.519054 210 80 80
-1.535389 75.932213 1.718947 210 80 80
-20.292585 81.146881 1.662413 210 80 80
-20.145309 80.868973 -0.899829 210 80 80
-19.405602 80.366302 -3.218431 210 80 80
-18.028721 79.684265 -5.251630 210 80 80
-16.230755 78.886261 -6.785684 210 80 80
-14.163356 78.145042 -7.847095 210 80 80
-11.926384 77.550919 -8.417319 210 80 80
-9.657333 77.147385 -8.499041 210 80 80
-7.472173 76.872658 -8.122497 210 80 80
-5.479402 76.632423 -7.286910 210 80 80
-5.587247 74.889267 -7.253012 210 80 80
-3.810953 74.557304 -5.773042 210 80 80
-2.669448 74.264519 -3.844673 210 80 80
-2.050558 74.041718 -1.473547 210 80 80
-1.942589 74.154869 1.642413 210 80 80
-20.119392 78.537521 1.475084 210 80 80
-19.940022 78.372459 -1.012451 210 80 80
-19.231958 78.005661 -3.254156 210 80 80
-17.958033 77.469635 -5.264561 210 80 80
-16.230984 76.861359 -6.820009 210 80 80
-14.179336 76.301765 -7.964653 210 80 80
-11.953013 75.821121 -8.542554 210 80 80
-9.709575 75.453308 -8.610218 210 80 80
-7.563217 75.156067 -8.186266 210 80 80
-7.713939 73.330307 -8.239966 210 80 80
-5.731291 73.038414 -7.262576 210 80 80
-4.117030 72.783722 -5.760172 210 80 80
-3.050533 72.506050 -3.773494 210 80 80
-2.495015 72.229591 -1.408476 210 80 80
-19.956696 75.990166 1.195007 210 80 80
-19.740076 75.843155 -1.232236 210 80 80
-19.049234 75.598427 -3.377182 210 80 80
-17.858547 75.257248 -5.307489 210 80 80
-16.258953 74.878601 -6.911097 210 80 80
-14.248202 74.496269 -8.101915 210 80 80
-12.035679 74.105522 -8.706834 210 80 80
-9.811711 73.705521 -8.740072 210 80 80
-9.989521 71.658318 -8.868024 210 80 80
-7.910460 71.209106 -8.322822 210 80 80
-6.061402 70.904060 -7.304562 210 80 80
-19.751883 73.540611 0.798234 210 80 80
-19.525463 73.439812 -1.488940 210 80 80
-18.903067 73.234993 -3.535580 210 80 80
-17.846434 72.978851 -5.420375 210 80 80
-16.323931 72.792130 -7.041353 210 80 80
-14.390033 72.522591 -8.250207 210 80 80
-12.208471 72.109291 -8.884076 210 80 80
-19.311668 70.961754 -1.740081 210 80 80
-18.787123 70.926880 -3.742792 210 80 80
-17.839460 70.737038 -5.590268 210 80 80
-16.394558 70.603722 -7.203414 210 80 80
3 229 178 179
3 178 115 116
3 178 116 179
3 115 75 76
3 115 76 116
3 75 36 37
3 75 37 76
3 37 36 515
3 37 515 514
3 554 553 514
3 554 514 515
3 553 554 606
3 553 606 605
3 656 605 606
3 397 396 334
3 395 333 334
3 395 334 396
3 333 395 394
3 333 394 332
3 384 331 332
3 384 332 394
3 331 384 329
3 331 329 330
3 279 280 330
3 279 330 329
3 280 279 228
3 280 228 229
3 177 178 229
3 177 229 228
3 177 114 115
3 177 115 178
3 114 74 75
3 114 75 115
3 74 35 36
3 74 36 75
3 516 515 36
3 516 36 35
3 515 516 555
3 515 555 554
3 607 606 554
3 607 554 555
3 607 657 656
3 607 656 606
3 657 707 706
3 657 706 656
3 707 758 757
3 707 757 706
3 758 808 807
3 758 807 757
3 808 870 860
3 808 860 807
3 870 920 859
3 870 859 860
3 920 919 858
3 920 858 859
3 918 858 919
3 475 448 449
3 448 447 397
3 448 397 449
3 446 396 397
3 446 397 447
3 396 446 445
3 396 445 395
3 444 394 395
3 444 395 445
3 394 444 383
3 394 383 384
3 328 329 384
3 328 384 383
3 329 328 278
3 329 278 279
3 227 228 279
3 227 279 278
3 228 227 176
3 228 176 177
3 113 114 177
3 113 177 176
3 113 73 74
3 113 74 114
3 73 34 35
3 73 35 74
3 35 34 517
3 35 517 516
3 556 555 516
3 556 516 517
3 556 608 607
3 556 607 555
3 608 658 657
3 608 657 607
3 658 708 707
3 658 707 657
3 708 759 758
3 708 758 707
3 759 809 808
3 759 808 758
3 809 871 870
3 809 870 808
3 871 921 920
3 871 920 870
3 921 946 919
3 921 919 920
3 946 945 918
3 946 918 919
3 944 943 918
3 944 918 945
3 493 507 491
3 474 475 492
3 474 492 491
3 475 474 473
3 475 473 448
3 472 447 448
3 472 448 473
3 447 472 471
3 447 471 446
3 470 445 446
3 470 446 471
3 445 470 443
3 445 443 444
3 382 383 444
3 382 444 443
3 383 382 327
3 383 327 328
3 277 278 328
3 277 328 327
3 278 277 226
3 278 226 227
3 175 176 227
3 175 227 226
3 175 112 113
3 175 113 176
3 112 72 73
3 112 73 113
3 72 33 34
3 72 34 73
3 518 517 34
3 518 34 33
3 517 518 557
3 517 557 556
3 609 608 556
3 609 556 557
3 609 659 658
3 609 658 608
3 659 709 708
3 659 708 658
3 709 760 759
3 709 759 708
3 760 810 809
3 760 809 759
3 810 872 871
3 810 871 809
3 872 922 921
3 872 921 871
3 922 947 946
3 922 946 921
3 947 962 945
3 947 945 946
3 962 961 944
3 962 944 945
3 961 960 959
3 961 959 944
3 959 943 944
3 513 508 509
3 513 509 510
3 508 513 506
3 508 506 507
3 490 491 507
3 490 507 506
3 491 490 489
3 491 489 474
3 488 473 474
3 488 474 489
3 473 488 487
3 473 487 472
3 486 471 472
3 486 472 487
3 471 486 469
3 471 469 470
3 442 443 470
3 442 470 469
3 443 442 381
3 443 381 382
3 326 327 382
3 326 382 381
3 327 326 276
3 327 276 277
3 225 226 277
3 225 277 276
3 226 225 174
3 226 174 175
3 174 111 112
3 174 112 175
3 111 71 72
3 111 72 112
3 71 32 33
3 71 33 72
3 33 32 519
3 33 519 518
3 558 557 518
3 558 518 519
3 557 558 610
3 557 610 609
3 610 660 659
3 610 659 609
3 660 710 709
3 660 709 659
3 710 761 760
3 710 760 709
3 761 811 810
3 761 810 760
3 811 873 872
3 811 872 810
3 873 923 922
3 873 922 872
3 923 948 947
3 923 947 922
3 948 963 962
3 948 962 947
3 963 977 961
3 963 961 962
3 977 976 960
3 977 960 961
3 976 975 974
3 976 974 960
3 973 959 960
3 973 960 974
3 510 511 512
3 510 512 513
3 505 506 513
3 505 513 512
3 506 505 504
3 506 504 490
3 503 489 490
3 503 490 504
3 489 503 502
3 489 502 488
3 501 487 488
3 501 488 502
3 487 501 485
3 487 485 486
3 468 469 486
3 468 486 485
3 469 468 441
3 469 441 442
3 380 381 442
3 380 442 441
3 381 380 325
3 381 325 326
3 275 276 326
3 275 326 325
3 276 275 224
3 276 224 225
3 173 174 225
3 173 225 224
3 173 110 111
3 173 111 174
3 110 70 71
3 110 71 111
3 70 31 32
3 70 32 71
3 520 519 32
3 520 32 31
3 519 520 559
3 519 559 558
3 611 610 558
3 611 558 559
3 611 661 660
3 611 660 610
3 661 711 710
3 661 710 660
3 711 762 761
3 711 761 710
3 762 812 811
3 762 811 761
3 812 874 873
3 812 873 811
3 874 924 923
3 874 923 873
3 924 949 948
3 924 948 923
3 949 964 963
3 949 963 948
3 964 978 977
3 964 977 963
3 978 979 976
3 978 976 977
3 979 980 975
3 979 975 976
3 980 981 988
3 980 988 975
3 987 974 975
3 987 975 988
3 974 987 972
3 988 989 986
3 988 986 987
3 989 984 985
3 989 985 986
3 495 512 511
3 495 511 494
3 512 495 496
3 512 496 505
3 497 504 505
3 497 505 496
3 504 497 498
3 504 498 503
3 499 502 503
3 499 503 498
3 502 499 500
3 502 500 501
3 484 485 501
3 484 501 500
3 485 484 467
3 485 467 468
3 467 440 441
3 467 441 468
3 440 379 380
3 440 380 441
3 379 324 325
3 379 325 380
3 324 274 275
3 324 275 325
3 223 224 275
3 223 275 274
3 224 223 172
3 224 172 173
3 172 109 110
3 172 110 173
3 109 69 70
3 109 70 110
3 69 30 31
3 69 31 70
3 31 30 521
3 31 521 520
3 560 559 520
3 560 520 521
3 559 560 612
3 559 612 611
3 612 662 661
3 612 661 611
3 662 712 711
3 662 711 661
3 763 762 711
3 763 711 712
3 762 763 813
3 762 813 812
3 875 874 812
3 875 812 813
3 874 875 925
3 874 925 924
3 925 950 949
3 925 949 924
3 950 965 964
3 950 964 949
3 965 966 978
3 965 978 964
3 966 967 979
3 966 979 978
3 967 968 980
3 967 980 979
3 968 969 981
3 968 981 980
3 969 970 982
3 969 982 981
3 989 988 981
3 989 981 982
3 982 983 984
3 982 984 989
3 494 476 477
3 494 477 495
3 478 496 495
3 478 495 477
3 496 478 479
3 496 479 497
3 480 498 497
3 480 497 479
3 498 480 481
3 498 481 499
3 482 500 499
3 482 499 481
3 500 482 483
3 500 483 484
3 483 466 467
3 483 467 484
3 466 439 440
3 466 440 467
3 439 378 379
3 439 379 440
3 378 323 324
3 378 324 379
3 323 273 274
3 323 274 324
3 273 222 223
3 273 223 274
3 222 221 172
3 222 172 223
3 172 221 220
3 172 220 171
3 219 170 171
3 219 171 220
3 107 108 171
3 107 171 170
3 108 109 172
3 108 172 171
3 68 69 109
3 68 109 108
3 68 29 30
3 68 30 69
3 522 521 30
3 522 30 29
3 522 561 560
3 522 560 521
3 561 613 612
3 561 612 560
3 612 613 665
3 612 665 664
3 665 717 716
3 665 716 664
3 715 663 664
3 715 664 716
3 663 662 612
3 663 612 664
3 713 712 662
3 713 662 663
3 712 713 764
3 712 764 763
3 814 813 763
3 814 763 764
3 813 814 876
3 813 876 875
3 926 925 875
3 926 875 876
3 925 926 951
3 925 951 950
3 951 952 965
3 951 965 950
3 952 953 966
3 952 966 965
3 953 954 967
3 953 967 966
3 954 955 968
3 954 968 967
3 955 956 969
3 955 969 968
3 956 957 970
3 956 970 969
3 957 958 971
3 957 971 970
3 983 982 970
3 983 970 971
3 479 460 461
3 479 461 480
3 462 481 480
3 462 480 461
3 481 462 463
3 481 463 482
3 463 464 483
3 463 483 482
3 464 465 466
3 464 466 483
3 465 438 439
3 465 439 466
3 438 377 378
3 438 378 439
3 377 322 323
3 377 323 378
3 322 272 273
3 322 273 323
3 272 271 222
3 272 222 273
3 271 270 221
3 271 221 222
3 270 269 220
3 270 220 221
3 220 269 268
3 220 268 219
3 267 218 219
3 267 219 268
3 218 169 170
3 218 170 219
3 170 169 106
3 170 106 107
3 66 67 107
3 66 107 106
3 67 68 108
3 67 108 107
3 28 29 68
3 28 68 67
3 28 523 522
3 28 522 29
3 523 562 561
3 523 561 522
3 562 614 613
3 562 613 561
3 666 665 613
3 666 613 614
3 665 666 718
3 665 718 717
3 718 771 770
3 718 770 717
3 769 716 717
3 769 717 770
3 716 769 768
3 716 768 715
3 767 714 715
3 767 715 768
3 714 713 663
3 714 663 715
3 765 764 713
3 765 713 714
3 764 765 815
3 764 815 814
3 877 876 814
3 877 814 815
3 876 877 927
3 876 927 926
3 928 951 926
3 928 926 927
3 951 928 929
3 951 929 952
3 929 930 953
3 929 953 952
3 930 931 954
3 930 954 953
3 931 932 955
3 931 955 954
3 461 433 462
3 433 434 463
3 433 463 462
3 434 435 464
3 434 464 463
3 436 465 464
3 436 464 435
3 436 437 438
3 436 438 465
3 437 376 377
3 437 377 438
3 376 321 322
3 376 322 377
3 321 320 272
3 321 272 322
3 320 319 271
3 320 271 272
3 319 318 270
3 319 270 271
3 318 317 269
3 318 269 270
3 317 316 268
3 317 268 269
3 268 316 315
3 268 315 267
3 314 266 267
3 314 267 315
3 266 217 218
3 266 218 267
3 217 168 169
3 217 169 218
3 105 106 169
3 105 169 168
3 106 105 65
3 106 65 66
3 26 27 66
3 26 66 65
3 27 28 67
3 27 67 66
3 27 524 523
3 27 523 28
3 524 563 562
3 524 562 523
3 563 615 614
3 563 614 562
3 614 615 667
3 614 667 666
3 719 718 666
3 719 666 667
3 718 719 772
3 718 772 771
3 824 823 771
3 824 771 772
3 823 822 770
3 823 770 771
3 770 822 821
3 770 821 769
3 820 768 769
3 820 769 821
3 768 820 819
3 768 819 767
3 818 766 767
3 818 767 819
3 766 765 714
3 766 714 767
3 816 815 765
3 816 765 766
3 815 816 878
3 815 878 877
3 879 927 877
3 879 877 878
3 879 880 928
3 879 928 927
3 881 929 928
3 881 928 880
3 929 881 882
3 929 882 930
3 882 931 930
3 389 390 434
3 389 434 433
3 391 435 434
3 391 434 390
3 435 391 392
3 435 392 436
3 393 437 436
3 393 436 392
3 437 393 375
3 437 375 376
3 374 321 376
3 374 376 375
3 374 373 320
3 374 320 321
3 373 372 319
3 373 319 320
3 372 371 318
3 372 318 319
3 371 370 317
3 371 317 318
3 317 370 369
3 317 369 316
3 368 315 316
3 368 316 369
3 315 368 367
3 315 367 314
3 366 313 314
3 366 314 367
3 313 265 266
3 313 266 314
3 265 216 217
3 265 217 266
3 216 167 168
3 216 168 217
3 168 167 104
3 168 104 105
3 64 65 105
3 64 105 104
3 65 64 25
3 65 25 26
3 25 526 525
3 25 525 26
3 524 27 26
3 524 26 525
3 525 564 563
3 525 563 524
3 564 616 615
3 564 615 563
3 668 667 615
3 668 615 616
3 667 668 720
3 667 720 719
3 773 772 719
3 773 719 720
3 772 773 825
3 772 825 824
3 893 892 824
3 893 824 825
3 891 823 824
3 891 824 892
3 891 890 822
3 891 822 823
3 889 821 822
3 889 822 890
3 821 889 888
3 821 888 820
3 887 819 820
3 887 820 888
3 819 887 886
3 819 886 818
3 886 869 817
3 886 817 818
3 816 766 818
3 816 818 817
3 817 861 878
3 817 878 816
3 861 862 879
3 861 879 878
3 862 863 880
3 862 880 879
3 863 864 881
3 863 881 880
3 865 882 881
3 865 881 864
3 386 430 429
3 386 429 385
3 429 374 375
3 429 375 385
3 429 428 373
3 429 373 374
3 428 427 372
3 428 372 373
3 427 426 371
3 427 371 372
3 426 425 370
3 426 370 371
3 424 369 370
3 424 370 425
3 424 423 368
3 424 368 369
3 422 367 368
3 422 368 423
3 367 422 421
3 367 421 366
3 420 365 366
3 420 366 421
3 365 312 313
3 365 313 366
3 312 264 265
3 312 265 313
3 264 215 216
3 264 216 265
3 215 166 167
3 215 167 216
3 166 103 104
3 166 104 167
3 104 103 63
3 104 63 64
3 24 25 64
3 24 64 63
3 24 527 526
3 24 526 25
3 527 566 565
3 527 565 526
3 564 525 526
3 564 526 565
3 565 617 616
3 565 616 564
3 616 617 669
3 616 669 668
3 721 720 668
3 721 668 669
3 720 721 774
3 720 774 773
3 826 825 773
3 826 773 774
3 825 826 894
3 825 894 893
3 941 940 893
3 941 893 894
3 940 939 892
3 940 892 893
3 892 939 938
3 892 938 891
3 938 937 890
3 938 890 891
3 937 936 889
3 937 889 890
3 936 935 888
3 936 888 889
3 888 935 934
3 888 934 887
3 885 886 887
3 885 887 934
3 886 885 868
3 886 868 869
3 386 387 431
3 386 431 430
3 459 458 430
3 459 430 431
3 428 429 430
3 428 430 458
3 458 451 427
3 458 427 428
3 427 451 452
3 427 452 426
3 453 425 426
3 453 426 452
3 425 453 454
3 425 454 424
3 454 455 423
3 454 423 424
3 423 455 456
3 423 456 422
3 457 421 422
3 457 422 456
3 421 457 419
3 421 419 420
3 418 363 420
3 418 420 419
3 363 364 365
3 363 365 420
3 364 311 312
3 364 312 365
3 311 263 264
3 311 264 312
3 263 214 215
3 263 215 264
3 214 165 166
3 214 166 215
3 165 102 103
3 165 103 166
3 102 62 63
3 102 63 103
3 63 62 23
3 63 23 24
3 23 528 527
3 23 527 24
3 527 528 567
3 527 567 566
3 619 618 566
3 619 566 567
3 618 617 565
3 618 565 566
3 670 669 617
3 670 617 618
3 669 670 722
3 669 722 721
3 775 774 721
3 775 721 722
3 774 775 827
3 774 827 826
3 895 894 826
3 895 826 827
3 894 895 896
3 894 896 941
3 917 935 936
3 942 933 934
3 942 934 935
3 933 884 885
3 933 885 934
3 884 867 868
3 884 868 885
3 867 884 883
3 387 432 431
3 450 451 458
3 450 458 459
3 398 452 451
3 417 362 363
3 417 363 418
3 362 309 364
3 362 364 363
3 309 310 311
3 309 311 364
3 310 262 263
3 310 263 311
3 262 213 214
3 262 214 263
3 213 164 165
3 213 165 214
3 164 101 102
3 164 102 165
3 101 61 62
3 101 62 102
3 61 22 23
3 61 23 62
3 23 22 529
3 23 529 528
3 568 567 528
3 568 528 529
3 567 568 620
3 567 620 619
3 672 671 619
3 672 619 620
3 671 670 618
3 671 618 619
3 723 722 670
3 723 670 671
3 722 723 776
3 722 776 775
3 828 827 775
3 828 775 776
3 827 828 829
3 827 829 895
3 897 896 895
3 897 895 829
3 416 361 362
3 416 362 417
3 361 308 309
3 361 309 362
3 309 308 260
3 309 260 310
3 261 262 310
3 261 310 260
3 262 261 212
3 262 212 213
3 163 164 213
3 163 213 212
3 163 100 101
3 163 101 164
3 100 60 61
3 100 61 101
3 60 21 22
3 60 22 61
3 530 529 22
3 530 22 21
3 529 530 569
3 529 569 568
3 621 620 568
3 621 568 569
3 621 673 672
3 621 672 620
3 673 725 724
3 673 724 672
3 724 723 671
3 724 671 672
3 777 776 723
3 777 723 724
3 776 777 778
3 776 778 828
3 830 829 828
3 830 828 778
3 829 830 898
3 829 898 897
3 415 360 361
3 415 361 416
3 361 360 307
3 361 307 308
3 259 260 308
3 259 308 307
3 260 259 210
3 260 210 261
3 211 212 261
3 211 261 210
3 211 162 163
3 211 163 212
3 99 100 163
3 99 163 162
3 100 99 59
3 100 59 60
3 59 20 21
3 59 21 60
3 21 20 531
3 21 531 530
3 531 570 569
3 531 569 530
3 570 622 621
3 570 621 569
3 674 673 621
3 674 621 622
3 674 675 725
3 674 725 673
3 675 727 726
3 675 726 725
3 777 724 725
3 777 725 726
3 726 779 778
3 726 778 777
3 778 779 831
3 778 831 830
3 899 898 830
3 899 830 831
3 414 359 360
3 414 360 415
3 359 306 307
3 359 307 360
3 307 306 258
3 307 258 259
3 209 210 259
3 209 259 258
3 210 209 160
3 210 160 211
3 160 161 162
3 160 162 211
3 162 161 98
3 162 98 99
3 98 58 59
3 98 59 99
3 58 19 20
3 58 20 59
3 532 531 20
3 532 20 19
3 531 532 571
3 531 571 570
3 571 623 622
3 571 622 570
3 622 623 624
3 622 624 674
3 624 676 675
3 624 675 674
3 676 728 727
3 676 727 675
3 728 781 780
3 728 780 727
3 779 726 727
3 779 727 780
3 780 832 831
3 780 831 779
3 831 832 900
3 831 900 899
3 358 359 414
3 358 414 413
3 359 358 305
3 359 305 306
3 305 257 258
3 305 258 306
3 257 208 209
3 257 209 258
3 208 159 160
3 208 160 209
3 160 159 158
3 160 158 95
3 157 94 95
3 157 95 158
3 56 96 95
3 56 95 94
3 96 161 160
3 96 160 95
3 97 98 161
3 97 161 96
3 97 57 58
3 97 58 98
3 18 19 58
3 18 58 57
3 18 533 532
3 18 532 19
3 572 571 532
3 572 532 533
3 572 573 623
3 572 623 571
3 573 574 624
3 573 624 623
3 624 574 626
3 624 626 625
3 680 679 625
3 680 625 626
3 678 677 625
3 678 625 679
3 677 676 624
3 677 624 625
3 729 728 676
3 729 676 677
3 728 729 782
3 728 782 781
3 782 834 833
3 782 833 781
3 833 832 780
3 833 780 781
3 901 900 832
3 901 832 833
3 413 412 357
3 413 357 358
3 357 304 305
3 357 305 358
3 304 256 257
3 304 257 305
3 256 207 208
3 256 208 257
3 207 206 159
3 207 159 208
3 205 158 159
3 205 159 206
3 158 205 204
3 158 204 157
3 203 156 157
3 203 157 204
3 156 93 94
3 156 94 157
3 93 55 56
3 93 56 94
3 16 17 56
3 16 56 55
3 18 57 56
3 18 56 17
3 97 96 56
3 97 56 57
3 534 533 18
3 534 18 17
3 534 573 572
3 534 572 533
3 534 575 574
3 534 574 573
3 627 626 574
3 627 574 575
3 626 627 681
3 626 681 680
3 681 735 734
3 681 734 680
3 734 733 679
3 734 679 680
3 679 733 732
3 679 732 678
3 731 730 678
3 731 678 732
3 730 729 677
3 730 677 678
3 783 782 729
3 783 729 730
3 782 783 835
3 782 835 834
3 835 903 902
3 835 902 834
3 901 833 834
3 901 834 902
3 356 357 412
3 356 412 411
3 356 303 304
3 356 304 357
3 303 255 256
3 303 256 304
3 255 254 207
3 255 207 256
3 254 253 206
3 254 206 207
3 206 253 252
3 206 252 205
3 252 251 204
3 252 204 205
3 251 250 203
3 251 203 204
3 250 249 202
3 250 202 203
3 202 155 156
3 202 156 203
3 155 92 93
3 155 93 156
3 92 54 55
3 92 55 93
3 55 54 15
3 55 15 16
3 15 536 535
3 15 535 16
3 534 17 16
3 534 16 535
3 576 575 534
3 576 534 535
3 575 576 628
3 575 628 627
3 682 681 627
3 682 627 628
3 682 736 735
3 682 735 681
3 736 791 790
3 736 790 735
3 789 734 735
3 789 735 790
3 734 789 788
3 734 788 733
3 788 787 732
3 788 732 733
3 732 787 786
3 732 786 731
3 785 784 731
3 785 731 786
3 784 783 730
3 784 730 731
3 836 835 783
3 836 783 784
3 836 904 903
3 836 903 835
3 411 410 355
3 411 355 356
3 355 302 303
3 355 303 356
3 302 301 255
3 302 255 303
3 301 300 254
3 301 254 255
3 254 300 299
3 254 299 253
3 299 298 252
3 299 252 253
3 298 297 251
3 298 251 252
3 297 296 250
3 297 250 251
3 296 295 249
3 296 249 250
3 295 247 248
3 295 248 249
3 201 202 249
3 201 249 248
3 201 154 155
3 201 155 202
3 154 91 92
3 154 92 155
3 91 53 54
3 91 54 92
3 14 15 54
3 14 54 53
3 14 537 536
3 14 536 15
3 578 577 536
3 578 536 537
3 577 576 535
3 577 535 536
3 629 628 576
3 629 576 577
3 628 629 683
3 628 683 682
3 683 737 736
3 683 736 682
3 737 792 791
3 737 791 736
3 792 793 845
3 792 845 791
3 844 790 791
3 844 791 845
3 790 844 843
3 790 843 789
3 842 788 789
3 842 789 843
3 842 841 787
3 842 787 788
3 841 840 786
3 841 786 787
3 786 840 839
3 786 839 785
3 838 837 785
3 838 785 839
3 837 836 784
3 837 784 785
3 837 905 904
3 837 904 836
3 354 355 410
3 354 410 409
3 354 353 302
3 354 302 355
3 353 352 301
3 353 301 302
3 301 352 351
3 301 351 300
3 350 299 300
3 350 300 351
3 350 349 298
3 350 298 299
3 349 348 297
3 349 297 298
3 348 347 296
3 348 296 297
3 347 294 295
3 347 295 296
3 294 246 247
3 294 247 295
3 246 197 198
3 246 198 247
3 199 248 247
3 199 247 198
3 248 199 200
3 248 200 201
3 153 154 201
3 153 201 200
3 153 90 91
3 153 91 154
3 90 52 53
3 90 53 91
3 53 52 13
3 53 13 14
3 13 538 537
3 13 537 14
3 537 538 579
3 537 579 578
3 631 630 578
3 631 578 579
3 630 629 577
3 630 577 578
3 684 683 629
3 684 629 630
3 684 738 737
3 684 737 683
3 738 739 792
3 738 792 737
3 739 740 793
3 739 793 792
3 740 741 794
3 740 794 793
3 846 845 793
3 846 793 794
3 845 846 914
3 845 914 844
3 913 843 844
3 913 844 914
3 843 913 912
3 843 912 842
3 912 911 841
3 912 841 842
3 911 910 840
3 911 840 841
3 909 839 840
3 909 840 910
3 839 909 908
3 839 908 838
3 907 838 908
3 905 837 838
3 905 838 906
3 399 400 354
3 400 401 353
3 400 353 354
3 401 402 352
3 401 352 353
3 403 351 352
3 403 352 402
3 351 403 404
3 351 404 350
3 404 405 349
3 404 349 350
3 405 408 348
3 405 348 349
3 408 346 347
3 408 347 348
3 346 293 294
3 346 294 347
3 293 245 246
3 293 246 294
3 245 196 197
3 245 197 246
3 196 147 148
3 196 148 197
3 149 198 197
3 149 197 148
3 198 149 150
3 198 150 199
3 151 200 199
3 151 199 150
3 200 151 152
3 200 152 153
3 152 89 90
3 152 90 153
3 89 51 52
3 89 52 90
3 51 12 13
3 51 13 52
3 13 12 539
3 13 539 538
3 580 579 538
3 580 538 539
3 579 580 632
3 579 632 631
3 632 633 685
3 632 685 631
3 684 630 631
3 684 631 685
3 685 686 738
3 685 738 684
3 686 687 739
3 686 739 738
3 687 688 740
3 687 740 739
3 688 689 741
3 688 741 740
3 689 690 742
3 689 742 741
3 795 794 741
3 795 741 742
3 794 795 847
3 794 847 846
3 915 914 846
3 915 846 847
3 914 915 916
3 914 916 913
3 916 852 912
3 916 912 913
3 912 852 853
3 912 853 911
3 853 854 910
3 853 910 911
3 854 855 909
3 854 909 910
3 856 908 909
3 856 909 855
3 908 856 857
3 335 336 400
3 336 337 401
3 336 401 400
3 338 402 401
3 338 401 337
3 402 338 339
3 402 339 403
3 339 340 404
3 339 404 403
3 404 340 406
3 404 406 405
3 406 407 408
3 406 408 405
3 407 345 346
3 407 346 408
3 345 292 293
3 345 293 346
3 292 244 245
3 292 245 293
3 244 195 196
3 244 196 245
3 195 146 147
3 195 147 196
3 146 83 84
3 146 84 147
3 85 148 147
3 85 147 84
3 148 85 86
3 148 86 149
3 86 87 150
3 86 150 149
3 87 88 151
3 87 151 150
3 88 89 152
3 88 152 151
3 50 51 89
3 50 89 88
3 51 50 11
3 51 11 12
3 11 540 539
3 11 539 12
3 540 581 580
3 540 580 539
3 581 633 632
3 581 632 580
3 582 634 633
3 582 633 581
3 686 685 633
3 686 633 634
3 634 635 687
3 634 687 686
3 635 636 688
3 635 688 687
3 636 637 689
3 636 689 688
3 637 638 690
3 637 690 689
3 638 639 691
3 638 691 690
3 743 742 690
3 743 690 691
3 742 743 796
3 742 796 795
3 848 847 795
3 848 795 796
3 847 848 849
3 847 849 915
3 849 850 916
3 849 916 915
3 850 851 852
3 850 852 916
3 803 853 852
3 803 852 851
3 853 803 804
3 853 804 854
3 804 805 855
3 804 855 854
3 805 806 856
3 805 856 855
3 806 857 856
3 335 281 336
3 282 337 336
3 282 336 281
3 337 282 283
3 337 283 338
3 283 284 339
3 283 339 338
3 284 341 340
3 284 340 339
3 342 406 340
3 342 340 341
3 406 342 343
3 406 343 407
3 343 344 345
3 343 345 407
3 344 291 292
3 344 292 345
3 291 243 244
3 291 244 292
3 243 194 195
3 243 195 244
3 194 145 146
3 194 146 195
3 145 82 83
3 145 83 146
3 82 44 45
3 82 45 83
3 46 84 83
3 46 83 45
3 84 46 47
3 84 47 85
3 47 48 86
3 47 86 85
3 48 49 87
3 48 87 86
3 49 50 88
3 49 88 87
3 10 11 50
3 10 50 49
3 10 541 540
3 10 540 11
3 541 582 581
3 541 581 540
3 542 583 582
3 542 582 541
3 583 635 634
3 583 634 582
3 583 584 636
3 583 636 635
3 584 585 637
3 584 637 636
3 585 586 638
3 585 638 637
3 586 587 639
3 586 639 638
3 588 640 639
3 588 639 587
3 692 691 639
3 692 639 640
3 691 692 744
3 691 744 743
3 797 796 743
3 797 743 744
3 796 797 798
3 796 798 848
3 798 799 849
3 798 849 848
3 849 799 800
3 849 800 850
3 801 851 850
3 801 850 800
3 851 801 802
3 851 802 803
3 753 804 803
3 753 803 802
3 753 754 805
3 753 805 804
3 754 755 806
3 754 806 805
3 806 755 756
3 230 231 281
3 281 231 232
3 281 232 282
3 233 283 282
3 233 282 232
3 233 285 284
3 233 284 283
3 285 286 341
3 285 341 284
3 286 287 342
3 286 342 341
3 287 288 343
3 287 343 342
3 343 288 289
3 343 289 344
3 289 290 291
3 289 291 344
3 290 242 243
3 290 243 291
3 242 193 194
3 242 194 243
3 193 144 145
3 193 145 194
3 81 82 145
3 81 145 144
3 82 81 43
3 82 43 44
3 43 4 5
3 43 5 44
3 6 45 44
3 6 44 5
3 6 7 46
3 6 46 45
3 8 47 46
3 8 46 7
3 8 9 48
3 8 48 47
3 9 10 49
3 9 49 48
3 9 542 541
3 9 541 10
3 8 543 542
3 8 542 9
3 543 584 583
3 543 583 542
3 543 544 585
3 543 585 584
3 544 545 586
3 544 586 585
3 545 546 587
3 545 587 586
3 587 546 547
3 587 547 588
3 548 589 588
3 548 588 547
3 589 641 640
3 589 640 588
3 641 693 692
3 641 692 640
3 693 745 744
3 693 744 692
3 745 746 797
3 745 797 744
3 746 747 798
3 746 798 797
3 798 747 748
3 798 748 799
3 749 800 799
3 749 799 748
3 800 749 750
3 800 750 801
3 751 802 801
3 751 801 750
3 802 751 752
3 802 752 753
3 752 704 754
3 752 754 753
3 704 705 755
3 704 755 754
3 181 232 231
3 181 231 180
3 232 181 234
3 232 234 233
3 234 235 285
3 234 285 233
3 235 236 286
3 235 286 285
3 236 237 287
3 236 287 286
3 237 238 288
3 237 288 287
3 238 239 289
3 238 289 288
3 289 239 240
3 289 240 290
3 241 242 290
3 241 290 240
3 242 241 192
3 242 192 193
3 143 144 193
3 143 193 192
3 144 143 80
3 144 80 81
3 42 43 81
3 42 81 80
3 42 3 4
3 42 4 43
3 548 547 4
3 548 4 3
3 547 546 5
3 547 5 4
3 546 545 6
3 546 6 5
3 544 7 6
3 544 6 545
3 544 543 8
3 544 8 7
3 3 2 549
3 3 549 548
3 549 590 589
3 549 589 548
3 590 642 641
3 590 641 589
3 642 694 693
3 642 693 641
3 694 695 745
3 694 745 693
3 695 696 746
3 695 746 745
3 696 697 747
3 696 747 746
3 698 748 747
3 698 747 697
3 748 698 699
3 748 699 749
3 700 750 749
3 700 749 699
3 700 701 751
3 700 751 750
3 701 702 752
3 701 752 751
3 752 702 703
3 752 703 704
3 703 655 705
3 703 705 704
3 180 129 182
3 180 182 181
3 182 183 234
3 182 234 181
3 234 183 184
3 234 184 235
3 185 236 235
3 185 235 184
3 185 186 237
3 185 237 236
3 186 187 238
3 186 238 237
3 187 188 239
3 187 239 238
3 189 240 239
3 189 239 188
3 240 189 190
3 240 190 241
3 191 192 241
3 191 241 190
3 192 191 142
3 192 142 143
3 79 80 143
3 79 143 142
3 80 79 41
3 80 41 42
3 41 2 3
3 41 3 42
3 41 40 1
3 41 1 2
3 1 550 549
3 1 549 2
3 550 591 590
3 550 590 549
3 591 643 642
3 591 642 590
3 643 644 694
3 643 694 642
3 644 645 695
3 644 695 694
3 645 646 696
3 645 696 695
3 646 647 697
3 646 697 696
3 697 647 648
3 697 648 698
3 649 699 698
3 649 698 648
3 649 650 700
3 649 700 699
3 650 651 701
3 650 701 700
3 651 652 702
3 651 702 701
3 652 653 703
3 652 703 702
3 703 653 654
3 703 654 655
3 130 131 182
3 130 182 129
3 182 131 132
3 182 132 183
3 133 184 183
3 133 183 132
3 184 133 134
3 184 134 185
3 135 186 185
3 135 185 134
3 135 136 187
3 135 187 186
3 136 137 188
3 136 188 187
3 188 137 138
3 188 138 189
3 139 190 189
3 139 189 138
3 190 139 140
3 190 140 191
3 141 142 191
3 141 191 140
3 142 141 78
3 142 78 79
3 40 41 79
3 40 79 78
3 77 39 40
3 77 40 78
3 39 0 1
3 39 1 40
3 1 0 551
3 1 551 550
3 592 591 550
3 592 550 551
3 592 593 643
3 592 643 591
3 593 594 644
3 593 644 643
3 594 595 645
3 594 645 644
3 595 596 646
3 595 646 645
3 596 597 647
3 596 647 646
3 598 648 647
3 598 647 597
3 648 598 599
3 648 599 649
3 600 650 649
3 600 649 599
3 650 600 601
3 650 601 651
3 602 652 651
3 602 651 601
3 602 603 653
3 602 653 652
3 603 604 654
3 603 654 653
3 118 131 130
3 118 130 117
3 119 132 131
3 119 131 118
3 119 120 133
3 119 133 132
3 120 121 134
3 120 134 133
3 121 122 135
3 121 135 134
3 122 123 136
3 122 136 135
3 123 124 137
3 123 137 136
3 125 138 137
3 125 137 124
3 138 125 126
3 138 126 139
3 127 140 139
3 127 139 126
3 140 127 128
3 140 128 141
3 77 78 141
3 77 141 128
3 38 39 77
3 552 592 551
3 995 994 391
3 995 391 390
3 994 993 392
3 994 392 391
3 993 991 393
3 993 393 392
3 991 990 375
3 991 375 393
3 375 990 992
3 375 992 385
3 998 386 385
3 998 385 992
3 1004 994 995
3 994 1004 1002
3 994 1002 993
3 1002 1001 991
3 1002 991 993
3 1001 1000 990
3 1001 990 991
3 999 992 990
3 999 990 1000
3 992 999 1003
3 992 1003 998
3 1003 1006 997
3 1003 997 998
3 387 386 998
3 387 998 997
3 387 997 996
3 387 996 388
3 1006 1005 996
3 1006 996 997
3 1006 1013 1014
3 1006 1014 1005
3 1015 1014 1013
3 1012 1011 1002
3 1012 1002 1004
3 1002 1011 1010
3 1002 1010 1001
3 1010 1009 1000
3 1010 1000 1001
3 1009 1008 999
3 1009 999 1000
3 1008 1007 1003
3 1008 1003 999
3 1003 1007 1013
3 1003 1013 1006
3 1007 1016 1015
3 1007 1015 1013
3 1016 1022 1021
3 1016 1021 1015
3 1020 1015 1021
3 1010 1019 1018
3 1010 1018 1009
3 1017 1008 1009
3 1017 1009 1018
3 1008 1017 1016
3 1008 1016 1007
3 1017 1022 1016
3 1018 1023 1017
3 1036 118 117
3 1025 1024 77
3 1025 77 128
3 1026 77 1024
3 1024 1039 1038
3 1038 1039 1053
3 1066 1052 1053
3 1064 1050 1051
3 1050 1036 1037
3 1050 1049 1035
3 1050 1035 1036
3 119 118 1036
3 119 1036 1035
3 1035 1034 120
3 1035 120 119
3 1034 1033 121
3 1034 121 120
3 1033 1032 122
3 1033 122 121
3 1032 1031 123
3 1032 123 122
3 1031 1030 124
3 1031 124 123
3 1030 1029 125
3 1030 125 124
3 1028 126 125
3 1028 125 1029
3 126 1028 1027
3 126 1027 127
3 1025 128 127
3 1025 127 1027
3 1027 1041 1040
3 1027 1040 1025
3 1040 1039 1024
3 1040 1024 1025
3 1054 1053 1039
3 1054 1039 1040
3 1053 1054 1067
3 1053 1067 1066
3 1087 1077 1078
3 1077 1064 1065
3 1076 1063 1064
3 1076 1064 1077
3 1063 1049 1050
3 1063 1050 1064
3 1063 1062 1048
3 1063 1048 1049
3 1034 1035 1049
3 1034 1049 1048
3 1048 1047 1033
3 1048 1033 1034
3 1047 1046 1032
3 1047 1032 1033
3 1046 1045 1031
3 1046 1031 1032
3 1045 1044 1030
3 1045 1030 1031
3 1044 1043 1029
3 1044 1029 1030
3 1043 1042 1028
3 1043 1028 1029
3 1041 1027 1028
3 1041 1028 1042
3 1042 1056 1055
3 1042 1055 1041
3 1055 1054 1040
3 1055 1040 1041
3 1068 1067 1054
3 1068 1054 1055
3 1088 1092 1087
3 1091 1086 1087
3 1086 1076 1077
3 1086 1077 1087
3 1085 1075 1076
3 1085 1076 1086
3 1075 1062 1063
3 1075 1063 1076
3 1074 1061 1062
3 1074 1062 1075
3 1047 1048 1062
3 1047 1062 1061
3 1061 1060 1046
3 1061 1046 1047
3 1060 1059 1045
3 1060 1045 1046
3 1059 1058 1044
3 1059 1044 1045
3 1058 1057 1043
3 1058 1043 1044
3 1057 1056 1042
3 1057 1042 1043
3 1057 1070 1069
3 1057 1069 1056
3 1068 1055 1056
3 1068 1056 1069
3 1079 1068 1069
3 1090 1085 1086
3 1089 1084 1085
3 1084 1074 1075
3 1084 1075 1085
3 1083 1073 1074
3 1083 1074 1084
3 1060 1061 1074
3 1060 1074 1073
3 1073 1072 1059
3 1073 1059 1060
3 1072 1071 1058
3 1072 1058 1059
3 1071 1070 1057
3 1071 1057 1058
3 1071 1081 1080
3 1071 1080 1070
3 1079 1069 1070
3 1072 1073 1083
3 1072 1083 1082
3 1082 1081 1071
3 1082 1071 1072
3 1096 1095 869
3 1096 869 868
3 1095 1094 817
3 1095 817 869
3 817 1094 1093
3 817 1093 861
3 1101 862 861
3 1101 861 1093
3 862 1101 1100
3 862 1100 863
3 1099 864 863
3 1099 863 1100
3 867 1097 1096
3 867 1096 868
3 1097 1107 1106
3 1097 1106 1096
3 1106 1105 1095
3 1106 1095 1096
3 1105 1104 1094
3 1105 1094 1095
3 1103 1093 1094
3 1103 1094 1104
3 1093 1103 1102
3 1093 1102 1101
3 1102 1109 1100
3 1102 1100 1101
3 1109 1099 1100
3 1107 1097 1098
3 1107 1098 1108
3 867 866 1098
3 867 1098 1097
3 1117 1116 1107
3 1117 1107 1108
3 1116 1115 1106
3 1116 1106 1107
3 1106 1115 1114
3 1106 1114 1105
3 1113 1104 1105
3 1113 1105 1114
3 1104 1113 1112
3 1104 1112 1103
3 1112 1111 1102
3 1112 1102 1103
3 1102 1111 1110
3 1102 1110 1109
3 1122 1116 1117
3 1122 1121 1115
3 1122 1115 1116
3 1121 1120 1114
3 1121 1114 1115
3 1120 1119 1113
3 1120 1113 1114
3 1119 1118 1112
3 1119 1112 1113
3 1126 1125 1122
3 1125 1124 1121
3 1125 1121 1122
3 1124 1120 1121
3 1123 1119 1120
3 1131 604 603
3 1129 1128 592
3 1127 593 592
3 1127 592 1128
3 1127 1140 594
3 1127 594 593
3 1140 1139 595
3 1140 595 594
3 1139 1138 596
3 1139 596 595
3 1137 597 596
3 1137 596 1138
3 597 1137 1136
3 597 1136 598
3 1135 599 598
3 1135 598 1136
3 599 1135 1134
3 599 1134 600
3 1133 601 600
3 1133 600 1134
3 601 1133 1132
3 601 1132 602
3 1131 603 602
3 1131 602 1132
3 1132 1147 1146
3 1132 1146 1131
3 1146 1130 1131
3 1144 1143 1128
3 1128 1143 1142
3 1128 1142 1127
3 1142 1141 1140
3 1142 1140 1127
3 1141 1154 1139
3 1141 1139 1140
3 1153 1138 1139
3 1153 1139 1154
3 1138 1153 1152
3 1138 1152 1137
3 1151 1136 1137
3 1151 1137 1152
3 1136 1151 1150
3 1136 1150 1135
3 1149 1134 1135
3 1149 1135 1150
3 1134 1149 1148
3 1134 1148 1133
3 1147 1132 1133
3 1147 1133 1148
3 1148 1163 1162
3 1148 1162 1147
3 1162 1161 1146
3 1162 1146 1147
3 1161 1145 1146
3 1173 1158 1159
3 1158 1143 1144
3 1157 1142 1143
3 1157 1143 1158
3 1142 1157 1156
3 1142 1156 1141
3 1156 1155 1154
3 1156 1154 1141
3 1154 1155 1168
3 1154 1168 1153
3 1167 1152 1153
3 1167 1153 1168
3 1152 1167 1166
3 1152 1166 1151
3 1165 1150 1151
3 1165 1151 1166
3 1150 1165 1164
3 1150 1164 1149
3 1163 1148 1149
3 1163 1149 1164
3 1178 1177 1163
3 1178 1163 1164
3 1177 1176 1162
3 1177 1162 1163
3 1176 1175 1161
3 1176 1161 1162
3 1175 1160 1161
3 1172 1157 1158
3 1172 1158 1173
3 1171 1156 1157
3 1171 1157 1172
3 1171 1170 1155
3 1171 1155 1156
3 1170 1169 1168
3 1170 1168 1155
3 1168 1169 1181
3 1168 1181 1167
3 1180 1166 1167
3 1180 1167 1181
3 1166 1180 1179
3 1166 1179 1165
3 1178 1164 1165
3 1178 1165 1179
3 1190 1189 1178
3 1190 1178 1179
3 1189 1188 1177
3 1189 1177 1178
3 1188 1187 1176
3 1188 1176 1177
3 1187 1186 1175
3 1187 1175 1176
3 1186 1174 1175
3 1184 1170 1171
3 1184 1169 1170
3 1183 1182 1181
3 1183 1181 1169
3 1181 1182 1191
3 1181 1191 1180
3 1190 1179 1180
3 1190 1180 1191
3 1195 1188 1189
3 1194 1187 1188
3 1193 1186 1187
3 1192 1185 1186
