ply
format ascii 1.0
element vertex 8
property float x
property float y
property float z
property uchar red
property uchar green
property uchar blue
element face 0
property list uchar int vertex_indices
end_header
-7.491398 89.817596 -12.443831 30 80 220
7.491398 89.817596 -12.443831 30 80 220
-5.077151 96.319038 -13.894096 30 80 220
5.077151 96.319038 -13.894096 30 80 220
-4.631378 118.547523 -9.929395 30 80 220
4.631378 118.547523 -9.929395 30 80 220
7.934847 80.955666 -8.273560 30 80 220
7.501889 136.917404 -12.651786 30 80 220
